<?xml version="1.0" encoding="utf-8"?>
<!-- Generator: Adobe Illustrator 16.0.0, SVG Export Plug-In . SVG Version: 6.00 Build 0)  -->
<!DOCTYPE svg PUBLIC "-//W3C//DTD SVG 1.1//EN" "http://www.w3.org/Graphics/SVG/1.1/DTD/svg11.dtd">
<svg version="1.1" id="Layer_1" xmlns="http://www.w3.org/2000/svg" xmlns:xlink="http://www.w3.org/1999/xlink" x="0px" y="0px"
	 width="500px" height="500px" viewBox="0 0 500 500" enable-background="new 0 0 500 500" xml:space="preserve">
<g id="Layer_1_1_">
	<circle fill="#1F2123" cx="249.5" cy="249.5" r="213.5"/>
	<g enable-background="new    ">
		<path fill="#FFFFFF" d="M150.54,208.323h-32.317l-3.802,24.306h24.578v15.48h-27.022l-6.109,38.699H88.213l14.801-93.693h49.97
			L150.54,208.323z"/>
		<path fill="#FFFFFF" d="M165.604,286.808h-15.751l14.938-95.323l16.294-2.716L165.604,286.808z"/>
		<path fill="#FFFFFF" d="M211.363,291.154c-7.604,15.615-14.528,20.368-27.564,20.368c-2.037,0-4.345-0.272-5.839-0.68v-13.308
			c2.172,0.543,4.074,0.814,7.061,0.814c4.209,0,8.011-2.31,10.728-6.789l2.986-5.567l-11.948-63.413l16.294-2.309l6.79,46.304
			l20.367-45.354h15.616L211.363,291.154z"/>
		<path fill="#FFFFFF" d="M262.143,286.808h-15.887l10.456-65.586H272.6L262.143,286.808z M267.982,210.224
			c-5.431,0-9.775-3.804-9.775-9.37c0-5.567,4.346-9.369,9.775-9.369c5.433,0,9.643,3.802,9.643,9.369
			C277.624,206.421,273.413,210.224,267.982,210.224z"/>
		<path fill="#FFFFFF" d="M339.948,239.826l-7.469,46.982h-15.887l6.926-42.773c0.135-1.086,0.271-2.716,0.271-3.666
			c0-4.209-1.494-6.518-5.568-6.518c-3.938,0-10.591,4.888-16.838,12.492l-6.246,40.465H279.25l7.876-49.698v-15.888h14.394
			l0.95,12.492c6.925-7.333,15.073-13.851,23.355-13.851c9.642,0,14.528,5.567,14.528,14.529
			C340.355,236.023,340.219,238.332,339.948,239.826z"/>
		<path fill="#FFFFFF" d="M401.456,282.055c-3.396,21.727-15.208,29.467-32.317,29.467c-9.912,0-18.467-2.309-25.121-5.432
			l4.209-12.9c6.52,3.53,12.9,5.567,20.504,5.567c9.643,0,14.803-5.433,16.703-15.072l1.086-6.519
			c-4.889,4.752-10.728,9.233-18.604,9.233c-10.998,0-18.874-8.012-18.874-22.271c0-27.293,17.788-43.724,37.612-43.724
			c8.012,0,15.889,1.63,23.764,4.346L401.456,282.055z M385.162,233.036c-10.32,0-20.099,10.863-20.099,28.787
			c0,7.604,3.123,10.999,8.556,10.999c5.023,0,9.506-3.259,14.801-8.69l4.753-29.602
			C390.457,233.444,388.149,233.036,385.162,233.036z"/>
	</g>
</g>
<g id="Layer_2">
</g>
</svg>
