<?xml version="1.0" encoding="utf-8"?>
<!-- Generator: Adobe Illustrator 25.4.1, SVG Export Plug-In . SVG Version: 6.00 Build 0)  -->
<svg version="1.1" id="Layer_1" xmlns="http://www.w3.org/2000/svg" xmlns:xlink="http://www.w3.org/1999/xlink" x="0px" y="0px"
	 viewBox="0 0 400 179" style="enable-background:new 0 0 400 179;" xml:space="preserve">
<style type="text/css">
	.st0{fill:#999999;}
</style>
<g>
	<g>
		<polygon class="st0" points="43.8,111.4 43.8,107.1 61.9,107.1 61.9,96.3 43.8,96.3 43.8,92 66.2,92 66.2,111.4 		"/>
		<rect x="43.8" y="99.6" class="st0" width="14.9" height="4.3"/>
		<polygon class="st0" points="46.8,67.2 51.1,67.2 51.1,84.5 61.9,84.5 61.9,70.3 81.3,70.3 81.3,81.2 77,81.2 77,74.6 66.2,74.6 
			66.2,88.8 46.8,88.8 		"/>
		<rect x="54.4" y="67.2" class="st0" width="4.3" height="14"/>
		<polygon class="st0" points="92,111.4 92,107.1 73.8,107.1 73.8,96.3 92,96.3 92,92 69.5,92 69.5,111.4 		"/>
		<rect x="77" y="99.6" class="st0" width="14.9" height="4.3"/>
		<polygon class="st0" points="69.5,77.8 73.8,77.8 73.8,84.5 84.6,84.5 84.6,67.2 88.9,67.2 88.9,88.8 69.5,88.8 		"/>
	</g>
	<g>
		<path class="st0" d="M122,111.4l-8.1-22.6H109l-7.9,22.6h4.4l1.6-4.6h8.6l1.6,4.6H122z M114.5,103.3h-6.3l2-5.8
			c0.4-1.3,0.8-2.6,1.1-3.8h0c0.3,1.3,0.6,2.4,1,3.6L114.5,103.3z"/>
		<path class="st0" d="M140.1,111.4l-5.4-7.6c-0.6-0.8-1.2-1.6-1.8-2.5c3.4-0.5,5.8-3,5.8-6.3c0-4.6-3.2-6.4-8.2-6.4
			c-2.6,0-4.7,0-6.5,0.1v22.6h4.4v-9.4h0.2l6.3,9.4L140.1,111.4L140.1,111.4z M134,95.5c0,2.1-1.6,3.5-4.2,3.5c-0.7,0-1.3,0-1.6-0.1
			v-6.5c0.4-0.1,1.1-0.1,1.7-0.1C132.7,92.2,134,93.3,134,95.5z"/>
		<path class="st0" d="M155.5,104.4c0-7.1-9.5-5.6-9.5-9.6c0-1.6,1.3-2.8,3.8-2.8c1.4,0,2.8,0.2,4.1,0.6l0.2-3.8
			c-1.3-0.2-2.8-0.4-4.1-0.4c-5.4,0-8.6,2.8-8.6,6.8c0,7.4,9.5,5.5,9.5,9.8c0,2.1-1.7,3-3.9,3c-1.6,0-3.5-0.4-4.7-0.8l-0.3,4.1
			c1.4,0.4,3,0.5,4.6,0.5C152.1,111.8,155.5,108.7,155.5,104.4z"/>
		<polygon class="st0" points="177.8,111.4 177.8,107.7 169.8,107.7 169.8,101.6 177.4,101.6 177.4,98 169.8,98 169.8,92.4 
			177.8,92.4 177.8,88.8 165.5,88.8 165.5,111.4 		"/>
		<polygon class="st0" points="193.2,111.4 193.2,107.6 185.9,107.6 185.9,88.8 181.5,88.8 181.5,111.4 		"/>
		<polygon class="st0" points="207.7,111.4 207.7,107.7 199.7,107.7 199.7,101.6 207.3,101.6 207.3,98 199.7,98 199.7,92.4 
			207.7,92.4 207.7,88.8 195.4,88.8 195.4,111.4 		"/>
		<path class="st0" d="M226.6,110.7l-0.5-3.9c-1.2,0.5-3,0.9-4.4,0.9c-4.6,0-6.6-2.7-6.6-7.7c0-4.4,2.1-7.6,6.3-7.6
			c1.5,0,3.1,0.2,4.6,0.7l0.5-4c-1.5-0.4-3.2-0.6-4.8-0.6c-7.6,0-11.3,5-11.3,12.2c0,5.6,2.5,10.9,10.5,10.9
			C222.9,111.7,225,111.3,226.6,110.7z"/>
		<polygon class="st0" points="244,92.5 244,88.8 227.9,88.8 227.9,92.5 233.8,92.5 233.8,111.4 238.1,111.4 238.1,92.5 		"/>
		<path class="st0" d="M262.2,111.4l-5.4-7.6c-0.6-0.8-1.2-1.6-1.8-2.5c3.4-0.5,5.8-3,5.8-6.3c0-4.6-3.2-6.4-8.2-6.4
			c-2.6,0-4.7,0-6.5,0.1v22.6h4.4v-9.4h0.2l6.3,9.4L262.2,111.4L262.2,111.4z M256.2,95.5c0,2.1-1.6,3.5-4.2,3.5
			c-0.7,0-1.3,0-1.6-0.1v-6.5c0.4-0.1,1.1-0.1,1.7-0.1C254.8,92.2,256.2,93.3,256.2,95.5z"/>
		<path class="st0" d="M284.3,99.8c0-7.7-4.3-11.4-10.3-11.4c-6.1,0-11.1,4.5-11.1,12c0,7,3.4,11.4,10.3,11.4
			C279.4,111.8,284.3,107.3,284.3,99.8z M279.6,100.1c0,5.4-3.2,7.7-6.1,7.7c-4.1,0-5.9-3.1-5.9-7.9c0-5.1,2.9-7.6,6-7.6
			C277.5,92.3,279.6,95.1,279.6,100.1z"/>
		<path class="st0" d="M306,111.4V88.8h-4.2v7c0,2.8,0.1,6.8,0.2,9.1c-0.8-1.7-1.7-3.6-2.8-5.3l-6.3-10.8h-5.7v22.6h4.2v-8.1
			c0-2.7-0.1-6.3-0.2-8.2c0.7,1.5,1.5,3.2,2.4,4.9l6.6,11.4L306,111.4L306,111.4z"/>
		<rect x="310.8" y="88.8" class="st0" width="4.4" height="22.6"/>
		<path class="st0" d="M334.6,110.7l-0.5-3.9c-1.2,0.5-3,0.9-4.4,0.9c-4.6,0-6.6-2.7-6.6-7.7c0-4.4,2.1-7.6,6.3-7.6
			c1.5,0,3.1,0.2,4.6,0.7l0.5-4c-1.5-0.4-3.2-0.6-4.8-0.6c-7.6,0-11.3,5-11.3,12.2c0,5.6,2.6,10.9,10.5,10.9
			C330.9,111.7,332.9,111.3,334.6,110.7z"/>
		<path class="st0" d="M356.2,111.4l-8.1-22.6h-4.9l-7.9,22.6h4.4l1.6-4.6h8.6l1.6,4.6H356.2z M348.7,103.3h-6.3l2-5.8
			c0.4-1.3,0.8-2.6,1.1-3.8h0c0.3,1.3,0.6,2.4,1,3.6L348.7,103.3z"/>
	</g>
</g>
</svg>
