<?xml version="1.0" encoding="utf-8"?>
<!-- Generator: Adobe Illustrator 25.4.1, SVG Export Plug-In . SVG Version: 6.00 Build 0)  -->
<svg version="1.1" id="Layer_1" xmlns="http://www.w3.org/2000/svg" xmlns:xlink="http://www.w3.org/1999/xlink" x="0px" y="0px"
	 viewBox="0 0 400 240" style="enable-background:new 0 0 400 240;" xml:space="preserve">
<style type="text/css">
	.st0{fill-rule:evenodd;clip-rule:evenodd;fill:#999999;}
	.st1{fill-rule:evenodd;clip-rule:evenodd;fill:#FFFFFF;}
</style>
<g>
	<path class="st0" d="M200,216.5c53.3,0,96.5-43.2,96.5-96.5c0-53.3-43.2-96.5-96.5-96.5c-53.3,0-96.5,43.2-96.5,96.5
		C103.5,173.3,146.7,216.5,200,216.5L200,216.5z"/>
	<polygon class="st1" points="163.6,177.6 170.3,177.6 170.3,68.1 163.6,68.1 163.6,177.6 	"/>
	<polygon class="st1" points="163.6,177.6 170.3,177.6 170.3,68.1 163.6,68.1 163.6,177.6 	"/>
	<path class="st1" d="M136,108c0.1-7,12.1-7.2,12.1-0.3l0.1,5.9h9.1v-5.5c0.6-18.3-30.8-18.3-30.6-0.5v31.6
		c-0.2,17.9,31.2,18.3,30.6,0v-6.6h-9.3v7.1c0,6.9-12,7-12.1,0v-32L136,108L136,108z"/>
	<path class="st1" d="M188.3,100.8c0,0,1.6-2.3,5.8-4.7c5.3-3,10.5,0,9.7-0.3c4.2,1.9,5.8,6.3,6.1,11.4v37.4h5.9v6.9h-15.1l0-44.7
		c0-6.5-11-6.3-11.1,0.3l0-0.3v44.7H176v-6.9l4.3,0v-41.9l-5.1,0v-6.8h13.1L188.3,100.8L188.3,100.8z"/>
	<path class="st1" d="M256.9,139.1c0.3,5,1.9,9.5,6.1,11.4c-0.8-0.3,2,1.1,4.9,1c1.5,0,8.9,0,8.9,0v-6.9c0,0-3.7,0-5.7,0
		c-2.5,0-4.7-1.2-4.9-4.7l0-37.1l0-0.1h8.9v-6.7h-9l0-0.1V81.4h-9.4L256.9,139.1L256.9,139.1z"/>
	<path class="st1" d="M240,132.6v7.1c0,6.9-12,7-12.1,0v-14.7l19.6,0c0.9,0,1.7-0.8,1.7-1.7l0-15.2c0.6-18.3-30.8-18.3-30.6-0.5
		v31.6c-0.2,17.9,31.2,18.3,30.6,0v-6.6H240L240,132.6L240,132.6L240,132.6z M228,107.6c0.1-6.9,12.1-6.8,12.1,0l0,10.3l-12,0V107.6
		L228,107.6z"/>
</g>
</svg>
