<?xml version="1.0" encoding="utf-8"?>
<!-- Generator: Adobe Illustrator 25.4.1, SVG Export Plug-In . SVG Version: 6.00 Build 0)  -->
<svg version="1.1" id="Layer_1" xmlns="http://www.w3.org/2000/svg" xmlns:xlink="http://www.w3.org/1999/xlink" x="0px" y="0px"
	 viewBox="0 0 400 240" style="enable-background:new 0 0 400 240;" xml:space="preserve">
<style type="text/css">
	.st0{fill:#999999;}
	.st1{fill-rule:evenodd;clip-rule:evenodd;fill:#FFFFFF;}
</style>
<g>
	<rect x="62" y="62.8" class="st0" width="266.8" height="114.2"/>
	<path class="st1" d="M205.1,118.2h-15.8v-15.1h15.8c6.8,0,8.8,3.4,8.8,7.5C213.9,114.8,211.9,118.2,205.1,118.2 M173.6,151.7h15.6
		v-18.6h11.7l12.3,18.6h19.5l-15.7-22.3c7.4-3.2,12.6-10.2,12.6-18.9c0-12.7-9.3-22.5-23.5-22.5h-32.3V151.7z M151.1,119.9
		c0-18.6-15.1-33-34-33c-18.9,0-34,14.4-34,33s15.1,33,34,33C136,152.9,151.1,138.5,151.1,119.9z M135,119.9c0,10-8.6,18-17.9,18
		c-9.3,0-17.8-8-17.8-18c0-10,8.5-18,17.8-18C126.4,101.9,135,109.9,135,119.9z M255.8,151.7h15.6v-21.4h29.5v-15h-29.5v-12.2h36.2
		v-15h-51.8V151.7z"/>
</g>
</svg>
