<?xml version="1.0" encoding="utf-8"?>
<!-- Generator: Adobe Illustrator 25.4.1, SVG Export Plug-In . SVG Version: 6.00 Build 0)  -->
<svg version="1.1" id="Layer_1" xmlns="http://www.w3.org/2000/svg" xmlns:xlink="http://www.w3.org/1999/xlink" x="0px" y="0px"
	 viewBox="0 0 400 240" style="enable-background:new 0 0 400 240;" xml:space="preserve">
<style type="text/css">
	.st0{fill:#999999;}
</style>
<g>
	<path class="st0" d="M101.2,106.9c3.2-1.2,6.3-1.7,9.8-1.7c5.8,0,9.8,1.5,11.8,4.8c1.5,2,2.1,4.6,2,9.8c0,0,0,14.6,0,14.7
		c0,2.4,1.8,3.6,3.7,4l-3.8,7.1c-1.2-0.1-2.5-0.4-3.8-0.9c-2-0.8-3.7-2.2-4.4-4.3c-0.6,1.1-1.3,1.8-2,2.5c-1.9,2-4.9,2.9-7.6,2.9
		c-7.5,0-12.7-3.7-12.7-11.7c0-8.2,5.1-12.1,16.7-12.7c0.3,0,3.8-0.3,4.2-0.3v-2.3c0-4.6-0.8-5.7-5.2-5.7c-3.6,0-6.7,1.4-11.3,3.5
		l-2.8-7.2C97.6,108.5,98.9,107.8,101.2,106.9z M112,127.6c-6,0.7-8,1.7-8,6.1c0,3.6,2.2,5.3,4.9,5.3c2.9,0,4.8-1.1,6.2-2.6v-9.2
		L112,127.6z"/>
	<g>
		<rect x="131.4" y="86.6" class="st0" width="9.8" height="58.2"/>
	</g>
	<g>
		<rect x="147.3" y="86.6" class="st0" width="9.8" height="58.2"/>
	</g>
	<g>
		<polygon class="st0" points="34.9,94.6 47.4,144.8 58.6,144.8 65.6,109.2 72.7,144.8 83.5,144.8 96.2,94.6 86,94.6 78.6,131.8 
			71.3,94.6 60.6,94.6 53.3,132.1 46,94.6 		"/>
	</g>
	<path class="st0" d="M206.4,106.9c3.2-1.2,6.3-1.7,9.8-1.7c5.8,0,9.8,1.5,11.8,4.8c1.5,2,2.1,4.6,2,9.8c0,0,0,14.6,0,14.7
		c0,2.4,1.8,3.6,3.7,4l-3.8,7.1c-1.3-0.1-2.6-0.4-3.9-0.9c-1.9-0.8-3.6-2.2-4.3-4.2c-0.6,1.1-1.3,1.8-2,2.5c-1.9,2-4.9,2.9-7.6,2.9
		c-7.5,0-12.7-3.7-12.7-11.7c0-8.2,5.1-12.1,16.7-12.7c0.4,0,3.8-0.3,4.2-0.3v-2.3c0-4.6-0.8-5.7-5.2-5.7c-3.6,0-6.7,1.4-11.3,3.5
		l-2.8-7.2C202.9,108.5,204.2,107.8,206.4,106.9z M217.3,127.6c-6,0.7-8,1.7-8,6.1c0,3.6,2.2,5.3,4.9,5.3c2.9,0,4.8-1.1,6.1-2.6
		v-9.2L217.3,127.6z"/>
	<path class="st0" d="M307.6,141.7c-3.5,2.4-8.3,4.2-13.9,4.2c-11.8,0-19-7.5-19-20.3c0-6.7,1.6-11.5,4.7-15.1
		c3.2-3.6,7.4-5.4,12.7-5.4c5,0,9.1,1.6,11.7,4.4c3.1,3.4,4.5,8.5,4.5,15.6c0,0.4,0,3,0,3.3h-23.2c0,7,4.3,9.4,9.3,9.4
		c3.9,0,7.5-1.1,10.9-3L307.6,141.7z M297.8,121.8v-0.7c0-5.3-1.4-9-6.3-9c-3.9,0-6.5,2.1-6.7,9.6l0,0.1L297.8,121.8L297.8,121.8z"
		/>
	<path class="st0" d="M331.3,105.2c1.8,0,2.9,0.2,4.2,0.7l-2,8.8c-1.1-0.4-2.4-0.7-4.1-0.7c-2.7,0-5.1,1-7.2,2.7v28h-9.9v-28.5
		c0-2.5-0.3-8.6-0.7-9.6l7.7-1.2c0.4,0.8,2.3,5.4,2.3,6.4c1.5-2.4,3.5-4.7,5.7-5.8C328.4,105.5,330.2,105.2,331.3,105.2z"/>
	<path class="st0" d="M170.5,105.6c0.7,1,1.9,4.5,1.9,5.1c2.3-3.8,6.8-5.4,10.3-5.4c3,0,5.8,0.9,8,2.4c4.2,2.9,6.8,8.4,6.8,17.2
		c0,8.1-1.7,13.5-5.7,17.2c-2.6,2.4-6.1,3.8-10.2,3.8c-3.9,0-6.8-1.3-8.8-2.8c0,0.7,0.1,3,0.1,3.6v11.8h-9.6v-42
		c0-2.5-0.1-8.6-0.5-9.6L170.5,105.6 M179.5,138.7c2.8,0,4.7-0.4,5.9-2.8c1.1-2.1,1.6-5.8,1.6-11.3c0-4.2-0.5-7-1.5-8.8
		c-1-1.9-2.8-2.7-5.2-2.7c-2.9,0-5.2,1-7.3,2.8v20.5C174.4,137.5,176.7,138.7,179.5,138.7z"/>
	<path class="st0" d="M244.3,105.6c0.7,1,1.9,4.5,1.9,5.1c2.3-3.8,6.8-5.4,10.3-5.4c3.1,0,5.8,0.9,8,2.4c4.2,2.9,6.8,8.4,6.8,17.2
		c0,8.1-1.8,13.5-5.7,17.2c-2.6,2.4-6.1,3.8-10.2,3.8c-3.9,0-6.8-1.3-8.8-2.8c0,0.7,0.1,3,0.1,3.6v11.8h-9.6v-42
		c0-2.5-0.1-8.6-0.5-9.6L244.3,105.6 M253.3,138.7c2.8,0,4.7-0.4,5.9-2.8c1.1-2.1,1.6-5.8,1.6-11.3c0-4.2-0.5-7-1.5-8.8
		c-1-1.9-2.8-2.7-5.3-2.7c-2.9,0-5.2,1-7.3,2.8v20.5C248.2,137.5,250.5,138.7,253.3,138.7z"/>
	<g>
		<polygon class="st0" points="350.1,96.3 357.1,100.3 355.7,98.3 365.1,95.2 362.9,88.5 353.5,91.6 353.5,81.7 346.8,81.7 
			346.8,91.6 337.3,88.5 335.2,95.2 344.6,98.3 338.8,106.4 344.4,110.5 350.1,102.6 351.6,104.6 350.6,99.1 		"/>
		<polygon class="st0" points="365,106.2 358.9,102.8 351.8,98.8 353.4,107.1 354.6,113.9 357.8,110 361.9,115.8 364.5,113.8 
			360.4,108 		"/>
	</g>
</g>
</svg>
