<?xml version="1.0" encoding="utf-8"?>
<!-- Generator: Adobe Illustrator 25.4.1, SVG Export Plug-In . SVG Version: 6.00 Build 0)  -->
<svg version="1.1" id="Layer_1" xmlns="http://www.w3.org/2000/svg" xmlns:xlink="http://www.w3.org/1999/xlink" x="0px" y="0px"
	 viewBox="0 0 400 179" style="enable-background:new 0 0 400 179;" xml:space="preserve">
<style type="text/css">
	.st0{fill:#999999;}
</style>
<g>
	<polygon class="st0" points="204.6,63.7 206.2,63.7 206.2,51 204.6,51 204.6,49 210.1,49 210.1,51 208.5,51 208.5,63.7 210.1,63.7 
		210.1,65.7 204.6,65.7 	"/>
	<path class="st0" d="M211.3,63.7h1c0.3,0,0.5-0.2,0.5-0.5V49h2.2l7.4,10.6c0.6,0.9,1.4,2.3,1.4,2.3h0c0,0-0.2-1.3-0.2-2.3v-9.1
		c0-1.1,0.4-1.5,1.5-1.5h2.4v2h-1c-0.3,0-0.5,0.2-0.5,0.5v14.2H224l-7.5-10.6c-0.6-0.9-1.4-2.3-1.4-2.3h0c0,0,0.1,1.3,0.1,2.3v9.1
		c0,1.1-0.4,1.5-1.5,1.5h-2.4V63.7z"/>
	<path class="st0" d="M234.2,51h-3.4c-0.3,0-0.5,0.2-0.5,0.5v1.1h-2.1v-2.2c0-1.1,0.4-1.4,1.4-1.4h11.5c1.1,0,1.4,0.4,1.4,1.4v2.2
		h-2.1v-1.1c0-0.4-0.2-0.5-0.5-0.5h-3.4v14.7h-2.4V51z"/>
	<path class="st0" d="M244.6,51h-1.5v-2h9.8c1.1,0,1.5,0.5,1.5,1.5v2.1h-2.2v-1.1c0-0.4-0.2-0.5-0.5-0.5H247v5.2h5.9v2H247v4.9
		c0,0.3,0.2,0.5,0.5,0.5h4.9c0.3,0,0.5-0.2,0.5-0.5v-1.1h2.2v2.1c0,1.1-0.4,1.5-1.5,1.5h-7.4c-1.1,0-1.5-0.4-1.5-1.5V51z"/>
	<path class="st0" d="M257.4,51h-1.5v-2h7.3c2.9,0,5,1.9,5,4.9c0,2.8-1.8,4.2-3,4.4v0c0,0,0.4,0.2,0.7,0.8l2,4
		c0.2,0.5,0.6,0.5,1.2,0.5h0.3v2h-1.2c-1.3,0-1.8-0.2-2.3-1.3l-2.3-4.5c-0.4-0.8-0.7-0.9-1.7-0.9h-2.2v6.7h-2.4V51z M262.8,57
		c1.8,0,2.9-1.2,2.9-3c0-1.9-1.1-3-2.8-3h-3.1v6H262.8z"/>
	<path class="st0" d="M269.4,63.7h0.3c0.4,0,0.6-0.1,0.8-0.5l5.2-14.2h2.5l5.2,14.2c0.1,0.4,0.4,0.5,0.8,0.5h0.4v2h-1.3
		c-1.2,0-1.6-0.3-1.9-1.4l-1.3-3.4h-6.2l-1.3,3.4c-0.4,1.1-0.8,1.4-2,1.4h-1.3V63.7z M279.5,58.9l-1.8-5.1c-0.3-0.9-0.7-2.3-0.7-2.3
		h0c0,0-0.3,1.5-0.6,2.3l-1.8,5.1H279.5z"/>
	<path class="st0" d="M293.1,48.7c2.3,0,6.3,0.9,6.3,3.6V54h-2.2V53c0-1.4-2.4-2.1-4.1-2.1c-3.4,0-6,2.5-6,6.3c0,3.7,2.6,6.6,6,6.6
		c3.3,0,5.3-2.3,5.3-2.3l1.3,1.7c0,0-2.4,2.8-6.6,2.8c-5,0-8.5-3.9-8.5-8.8C284.7,52.4,288.3,48.7,293.1,48.7"/>
	<path class="st0" d="M306.1,51h-3.4c-0.3,0-0.5,0.2-0.5,0.5v1.1h-2.1v-2.2c0-1.1,0.4-1.4,1.4-1.4h11.5c1.1,0,1.4,0.4,1.4,1.4v2.2
		h-2.1v-1.1c0-0.4-0.2-0.5-0.5-0.5h-3.4v14.7h-2.4V51z"/>
	<polygon class="st0" points="315.1,63.7 316.8,63.7 316.8,51 315.1,51 315.1,49 320.6,49 320.6,51 319,51 319,63.7 320.6,63.7 
		320.6,65.7 315.1,65.7 	"/>
	<path class="st0" d="M330.3,48.7c4.8,0,8.6,3.7,8.6,8.5c0,4.9-3.8,8.8-8.6,8.8c-4.8,0-8.6-3.8-8.6-8.8
		C321.7,52.4,325.5,48.7,330.3,48.7 M330.3,63.8c3.4,0,6.1-2.8,6.1-6.5c0-3.6-2.8-6.3-6.1-6.3c-3.4,0-6.1,2.8-6.1,6.3
		C324.2,60.9,326.9,63.8,330.3,63.8"/>
	<path class="st0" d="M339.9,63.7h1c0.3,0,0.5-0.2,0.5-0.5V49h2.2l7.4,10.6c0.6,0.9,1.4,2.3,1.4,2.3h0c0,0-0.2-1.3-0.2-2.3v-9.1
		c0-1.1,0.4-1.5,1.5-1.5h2.4v2h-1c-0.3,0-0.5,0.2-0.5,0.5v14.2h-2.1l-7.5-10.6c-0.6-0.9-1.4-2.3-1.4-2.3h0c0,0,0.1,1.3,0.1,2.3v9.1
		c0,1.1-0.5,1.5-1.5,1.5h-2.4V63.7z"/>
	<path class="st0" d="M203.9,87.4h0.3c0.4,0,0.6-0.1,0.8-0.5l5.2-14.2h2.5l5.2,14.2c0.1,0.4,0.4,0.5,0.8,0.5h0.4v2h-1.3
		c-1.2,0-1.6-0.3-1.9-1.4l-1.3-3.4h-6.2l-1.3,3.4c-0.4,1.1-0.8,1.4-2,1.4h-1.3V87.4z M214,82.6l-1.8-5.1c-0.3-0.9-0.7-2.3-0.7-2.3h0
		c0,0-0.3,1.5-0.6,2.3l-1.8,5.1H214z"/>
	<path class="st0" d="M219.4,75.3c-0.1-0.4-0.4-0.5-0.8-0.5h-0.4v-2h1.3c1.2,0,1.8,0.2,2.1,1.4l2.6,10.8c0.2,0.9,0.3,1.8,0.3,1.8
		h0.1c0,0,0.1-0.9,0.4-1.8l3.4-12.1h2.1l3.1,12.1c0.2,0.9,0.4,1.8,0.4,1.8h0c0,0,0.1-0.9,0.3-1.8l2.6-10.8c0.3-1.1,0.9-1.4,2-1.4
		h1.3v2h-0.4c-0.4,0-0.7,0.1-0.8,0.5l-3.7,14.2h-2.8L230,78.9c-0.3-1.1-0.5-2.3-0.5-2.3h0c0,0-0.2,1.2-0.5,2.3l-3,10.6h-2.8
		L219.4,75.3z"/>
	<path class="st0" d="M239.6,87.4h0.3c0.4,0,0.6-0.1,0.8-0.5l5.2-14.2h2.5l5.2,14.2c0.1,0.4,0.4,0.5,0.8,0.5h0.4v2h-1.3
		c-1.2,0-1.6-0.3-1.9-1.4l-1.3-3.4h-6.2l-1.3,3.4c-0.4,1.1-0.8,1.4-2,1.4h-1.3V87.4z M249.7,82.6l-1.8-5.1c-0.3-0.9-0.7-2.3-0.7-2.3
		h0c0,0-0.3,1.5-0.6,2.3l-1.8,5.1H249.7z"/>
	<path class="st0" d="M256.8,74.7h-1.5v-2h7.3c2.9,0,5,1.9,5,4.9c0,2.8-1.8,4.2-3,4.4v0c0,0,0.4,0.2,0.7,0.8l2,4
		c0.2,0.5,0.6,0.5,1.2,0.5h0.3v2h-1.2c-1.3,0-1.8-0.2-2.3-1.3l-2.3-4.5c-0.4-0.8-0.7-0.9-1.7-0.9h-2.2v6.7h-2.4V74.7z M262.3,80.7
		c1.8,0,2.9-1.2,2.9-3c0-1.9-1.1-3-2.8-3h-3.1v6H262.3z"/>
	<path class="st0" d="M270.8,74.7h-1.5v-2h6.8c5.1,0,8.5,3.1,8.5,8.3c0,5.3-3.4,8.4-8.5,8.4h-3.7c-1.1,0-1.5-0.5-1.5-1.5V74.7z
		 M273.6,87.4h2.2c3.7,0,6.2-2.2,6.2-6.4c0-4.1-2.5-6.3-6.2-6.3h-2.7v12.1C273.1,87.2,273.3,87.4,273.6,87.4"/>
	<path class="st0" d="M286.7,85.6c0,0,1.7,2,4.2,2c1.6,0,2.9-0.9,2.9-2.5c0-3.5-8.1-3-8.1-8.2c0-2.5,2.2-4.5,5.4-4.5
		c1.8,0,4.8,0.8,4.8,3.1v1.4h-2.2v-0.8c0-0.9-1.3-1.5-2.6-1.5c-1.8,0-2.9,1-2.9,2.3c0,3.4,8.1,2.6,8.1,8.1c0,2.6-2,4.8-5.3,4.8
		c-3.6,0-5.6-2.5-5.6-2.5L286.7,85.6z"/>
	<path class="st0" d="M60.8,121.7h-8.5V113l38.3-38.2l-26.1-26H43.8v20.5l20.1,20.1l-20.1,20.1v20.7h20.7l13.5-13.5l-6.1-6.1
		L60.8,121.7z M52.3,65.8v-8.4H61l17.5,17.5l-8.6,8.6L52.3,65.8z"/>
	<path class="st0" d="M125.2,109.6l-20.1-20l20.1-20l0-20.8h-20.7L91,62.3l6.1,6.1l11-11l8.5,0v8.7l-38.3,38.2l26.1,26h20.8V109.6z
		 M90.4,104.2l8.6-8.6l17.7,17.6v8.5h-8.7L90.4,104.2z"/>
	<path class="st0" d="M139.7,80.7h8.2v-21c0-1.3,0.1-2.6,0.1-2.6h-0.1c0,0-0.4,0.9-1.6,2.1l-3,2.9l-4.1-4.3l9.5-9.1h6.3v31.9h8.2
		v5.9h-23.3V80.7z"/>
	<path class="st0" d="M169,76.7c0,0,3.3,4,8.8,4c4.2,0,6.9-2.8,6.9-6.3c0-4.2-3.8-6.5-8.2-6.5c-4.2,0-7.1,1.7-7.1,1.7l-2.5-1.2
		l1.4-16.1c0.2-2.5,1.1-3.6,3.6-3.6h14c2.5,0,3.6,1.1,3.6,3.6v5.8h-6.3v-2.3c0-0.7-0.4-1.2-1.2-1.2h-6.2c-0.7,0-1.1,0.4-1.2,1.2
		l-0.5,5.2c-0.1,1-0.3,1.8-0.3,1.8h0.1c0,0,1.8-0.7,4-0.7c8.7,0,13.9,5.5,13.9,12.4c0,6.6-5.2,12.7-14,12.7c-8,0-12.3-5.3-12.3-5.3
		L169,76.7z"/>
</g>
</svg>
