<?xml version="1.0" encoding="utf-8"?>
<!-- Generator: Adobe Illustrator 25.4.1, SVG Export Plug-In . SVG Version: 6.00 Build 0)  -->
<svg version="1.1" id="Layer_1" xmlns="http://www.w3.org/2000/svg" xmlns:xlink="http://www.w3.org/1999/xlink" x="0px" y="0px"
	 viewBox="0 0 400 240" style="enable-background:new 0 0 400 240;" xml:space="preserve">
<style type="text/css">
	.st0{fill:#999999;}
</style>
<path id="path2161" class="st0" d="M147.1,139.6c-1-0.1-2.2-0.4-4.4-1.1c-1.3-0.4-2.1-0.6-3.3-0.8c-0.4-0.1-0.7-0.2-0.8-0.2
	c-0.3-0.2-0.4-0.3-2.1-8.2c-0.1-0.6-0.3-1.3-0.3-1.6c-0.1-0.5-0.1-1,0.1-1.2c0.2-0.4,1-0.5,1.3-0.2c0.2,0.2,0.4,0.5,0.7,1.4
	c1.6,4.6,4.6,8,7.9,9.2c1,0.3,1.8,0.5,3,0.4c2-0.1,3.5-0.7,4.8-1.9c1.4-1.3,2-2.7,2.1-4.8c0.1-1.5-0.1-2.3-0.8-3.3
	c-0.7-1-1.7-1.8-3.6-2.8c-1.1-0.6-1.6-0.8-4.6-2c-4.2-1.8-5.8-2.7-7.3-3.9c-1.7-1.4-2.6-3.3-2.9-5.6c-0.1-0.7-0.1-2.6,0-3.2
	c0.5-3.9,3.2-7,6.8-8.2c1.3-0.4,1.8-0.5,3.6-0.5c1.4,0,1.7,0,2.3,0.2c1,0.2,1.7,0.5,3,1c0.6,0.3,1.3,0.5,1.5,0.6
	c1,0.3,1.7,0.2,2.6-0.2c0.7-0.4,1.2-0.4,1.5-0.1c0.3,0.3,0.3,0.6,0.2,1.9c-0.1,1.4-0.1,1.8,0.5,5.8c0.1,0.4,0.1,1.2,0.1,1.7
	c0,0.9,0,1-0.2,1.1c-0.2,0.2-0.6,0.3-1,0.2c-0.4-0.1-0.5-0.4-0.8-1.5c-0.5-1.9-1.3-3.3-2.4-4.7c-1.4-1.7-3.5-2.9-5.8-3.4
	c-1.8-0.4-3.4-0.2-4.8,0.5c-1.3,0.7-2.2,1.7-2.7,3c-0.2,0.6-0.2,0.7-0.2,1.6c0,0.7,0,1.1,0.1,1.4c0.7,2.2,2.7,3.6,7.7,5.6
	c3.6,1.4,4.8,1.9,5.9,2.5c2.6,1.5,4.3,3.9,5,7.1c0.1,0.7,0.2,0.9,0.2,2.6c0,2,0,2.3-0.4,3.7c-0.3,1.4-0.9,2.7-1.7,3.8
	c-0.5,0.7-1.6,1.8-2.3,2.3c-1.4,1-3.1,1.7-5.1,2C149.8,139.6,147.6,139.7,147.1,139.6z M140,136.3c0.1-0.1,0.2-0.2,0.2-0.3
	c0-0.2-2.9-9-3-9.1c0,0-0.1,0-0.2,0c-0.1,0-0.1,0.1-0.1,0.2c0,0.2,0.3,1.7,1.4,6.5c0.5,2.2,0.5,2.2,0.8,2.5c0.1,0.1,0.5,0.3,0.8,0.3
	C139.8,136.4,139.9,136.3,140,136.3z M157.7,131.5c0.4-1.6,0.3-2.9-0.1-4.2c-0.6-1.9-2.2-3.5-4.8-4.9c-1-0.5-1.5-0.8-4.7-2.2
	c-2.4-1.1-4.2-1.9-5.1-2.5c-2.6-1.6-3.8-3.2-4.2-5.7c-0.2-0.9-0.2-2.9,0-3.8c0.1-0.7,0.5-1.8,0.8-2.4c0.1-0.2,0.2-0.4,0.1-0.4
	c-0.1-0.1-0.3,0.1-0.7,1c-0.8,1.6-1.2,3.1-1.2,4.6c0,3.6,1.5,6,5.2,8.1c1.1,0.7,2.6,1.4,4.9,2.4c2.6,1.1,5,2.3,6,3
	c1.9,1.3,3.1,2.8,3.4,4.5c0.1,0.6,0.1,1.9,0,2.6c0,0.4,0,0.4,0.1,0.5C157.4,132.2,157.5,132.1,157.7,131.5z M157.1,108.4
	c-0.1-0.7-0.4-1.8-0.7-2.4c-0.2-0.5-0.4-0.7-0.9-1.2c-0.5-0.5-0.7-0.6-1.3-0.9c-1-0.5-3-1-3-0.8c0,0,0.2,0.2,0.5,0.3
	c1.2,0.6,2.4,1.6,3.3,2.6c0.6,0.7,1.3,1.7,1.6,2.4c0.1,0.2,0.2,0.4,0.3,0.4C157.1,108.8,157.1,108.8,157.1,108.4z M243.2,139.4
	c-0.4-0.2-0.4-0.1-4.3-4.8c-0.4-0.5-1.8-2.1-3-3.5c-1.2-1.4-2.5-2.9-2.8-3.3c-0.3-0.4-1.9-2.3-3.5-4.2c-1.6-1.9-3.3-4-3.8-4.5
	c-1.3-1.5-1.6-1.7-1.9-1.2c-0.1,0.2-0.1,0.6-0.1,7.5c0,7.7,0,8,0.3,9.3c0.2,0.8,0.4,1.4,0.9,1.8c0.5,0.6,0.9,0.7,2.5,1
	c0.9,0.2,1.1,0.4,1.1,1c-0.1,0.5-0.2,0.6-1.1,0.6c-0.4,0-1.1-0.1-1.5-0.2c-1.1-0.2-4.2-0.2-5.7,0c-1.5,0.2-1.6,0.2-1.8,0
	c-0.1-0.1-0.2-0.3-0.2-0.4c0-0.1,0-0.1-0.1,0.1c-0.2,0.5-0.3,0.5-2.7,0.3c-2.6-0.3-5-0.3-7.5,0c-0.7,0.1-1.3,0.1-1.4,0.1
	c-0.4-0.1-0.5-0.9-0.2-1.2c0.1-0.1,0.5-0.3,1-0.5c0.9-0.4,1.3-0.8,1.5-1.3c0.1-0.1,0.1-0.5,0.1-0.8c0.1-0.8,0-1.2-1.2-3.9
	c-0.7-1.6-1-2.1-1.6-2.3c-0.4-0.1-7.5-0.2-8.4-0.1c-1,0.1-1.4,0.5-1.9,1.8c-1,2.7-1.3,3.7-1.3,4.1c-0.1,1.2,0.7,2,2.4,2.4
	c1.7,0.4,1.8,0.5,1.8,1c0,0.4-0.2,0.7-0.5,0.8c-0.2,0.1-0.6,0.1-2-0.1c-2.3-0.3-4.3-0.3-5.8,0c-1.1,0.2-1.6,0.2-1.8,0
	c-0.2-0.2-0.2-0.6-0.1-0.9c0.1-0.2,0.2-0.3,0.9-0.6c0.6-0.3,1-0.5,1.5-1c0.6-0.7,1-1.3,2.6-5.1c0.4-1,0.9-2.1,1.1-2.5
	c0.2-0.4,0.7-1.5,1.1-2.5c0.4-1,0.9-2.1,1.1-2.5c0.2-0.4,0.7-1.5,1.1-2.5c0.4-1,0.9-2.1,1.1-2.5c0.4-0.9,2.2-5,2.5-5.6
	c0.7-1.6,1.2-2.7,1.3-2.9c0.2-0.2,0.6-0.2,0.8,0c0.2,0.2,0.3,0.4,1,2c0.3,0.6,0.6,1.3,0.7,1.6c0.1,0.2,0.7,1.7,1.4,3.3
	c2,4.7,3,7,3.5,8.2c0.3,0.6,1,2.4,1.7,4c2.8,6.6,2.7,6.4,3.3,7c0.4,0.5,0.9,0.7,1.8,1c0.6,0.2,0.9,0.4,0.9,0.6c0,0,0.1,0,0.2-0.1
	c0.1-0.1,0.4-0.3,0.8-0.4c0.6-0.3,1.3-0.8,1.5-1.3c0.6-0.9,1.1-4,1.3-7.2c0.1-1.6,0.1-11,0-12c-0.2-1.9-0.5-2.8-1.3-3.6
	c-0.5-0.5-1.1-0.7-1.9-0.9c-0.4-0.1-0.7-0.1-0.8-0.2c-0.3-0.2-0.3-1,0-1.3c0.1-0.1,0.2-0.2,0.6-0.2c0.2,0,0.7,0,1.1,0.1
	c0.8,0.1,1.6,0.1,3.1,0c0.6-0.1,1.4-0.1,1.7-0.1c1,0,1,0.1,3.3,2.8c1.3,1.6,2.4,2.8,6.1,7.4c2.7,3.2,4.2,5,5.7,6.9
	c1.5,1.8,2,2.3,2.4,2.3c0.2,0,0.3-0.1,0.5-0.6c0.1-0.3,0.1-1.1,0.1-5.7c0-7.3,0-8.6-0.6-9.7c-0.5-1-1.6-1.6-3.2-2
	c-1.1-0.2-1.2-0.3-1.2-0.8c0-0.3,0-0.4,0.2-0.5c0.2-0.2,0.3-0.2,0.7-0.2c0.3,0,0.8,0,1.2,0.1c1.3,0.2,3.5,0.2,5.4,0
	c2.2-0.2,2.6-0.2,2.8,0.1c0,0,0.1,0.2,0.1,0.4c0,0.5-0.1,0.6-0.9,0.9c-0.7,0.3-1,0.5-1.4,0.9c-0.4,0.4-0.6,0.9-0.8,1.5
	c-0.2,0.8-0.3,2.6-0.4,13.5c-0.1,5.7-0.1,10.2-0.2,10.4c-0.1,0.3-0.2,0.6-0.3,0.6C243.7,139.5,243.4,139.5,243.2,139.4z
	 M191.1,137.9c1.4-0.4,2.1-1.3,2.2-3.2c0-0.4,0-0.8,0-0.8c-0.1-0.2-0.2,0-0.4,0.5c-0.7,1.6-1.3,2.6-2.2,3.3
	c-0.2,0.1-0.3,0.3-0.3,0.3C190.3,138,190.6,138,191.1,137.9z M220.9,137.7c1.1-0.6,1.6-1.7,1.5-3.1c-0.1-0.7-0.3-1.7-0.3-1.7
	c0,0-0.1,0.4-0.2,0.8c-0.2,1.7-0.7,3-1.4,3.8C220.1,138,220.2,138.1,220.9,137.7z M209.6,136.7c0.2-0.2,0.4-0.4,0.4-0.6
	c0.3-0.7,0.4-1.6,0.2-2.8c-0.1-0.7-0.2-0.9-0.7-2.2c-0.1-0.3-0.7-1.8-1.4-3.3c-1.4-3.2-1.5-3.7-2.2-5.2c-0.3-0.6-0.5-1.3-0.6-1.5
	c-0.2-0.3-0.6-1.3-1.7-4c-0.5-1.1-0.6-1.3-0.9-1.2c-0.3,0.1-0.4,0.4-0.3,0.7c0,0.1,0.6,1.5,1.2,2.9c1.2,2.7,1.5,3.6,1.9,4.5
	c0.1,0.3,1.1,2.5,2.1,5c1.1,2.7,1.9,4.6,2,5c0.3,1.1,0.1,2.1-0.3,2.7c-0.4,0.5-0.4,0.5-0.1,0.4C209.2,137.1,209.4,136.9,209.6,136.7
	z M242.5,137.1c0.1-0.2,0-0.8-0.1-1.1c-0.1-0.3-0.4-0.6-2.5-3.1c-0.8-1-2.5-3-3.8-4.5c-2.9-3.4-3.8-4.5-4.2-4.9
	c-0.2-0.2-1.5-1.8-3-3.6c-4.8-5.7-5-5.9-6.2-6.7c-0.4-0.3-1.2-0.6-1.7-0.8c-0.3-0.1-0.1,0.1,0.6,0.6c1,0.8,1.5,1.3,3.9,4.2
	c1.2,1.4,2.8,3.4,3.6,4.3c0.8,1,2.4,2.9,3.5,4.2c1.1,1.3,2.9,3.5,4.1,4.8c1.1,1.3,2.7,3.2,3.5,4.2c1.8,2.1,1.9,2.3,2.1,2.3
	C242.4,137.3,242.5,137.2,242.5,137.1z M205.2,126.9c0.5-0.2,0.5-0.5-0.7-3.2c-0.4-1-1.2-2.7-1.6-3.7c-0.7-1.7-1-2.2-1.2-2.2
	c-0.2,0-0.5,0.5-0.7,0.9c-0.1,0.2-0.8,2-1.6,3.9c-1.6,3.7-1.7,4-1.4,4.2c0.1,0.1,0.3,0.2,0.5,0.2c0.2,0,1.7,0.1,3.4,0
	C204.6,127.1,205,127.1,205.2,126.9z M243.2,115.5c0-0.1,0-0.5,0-0.9c0-0.9-0.1-1.4-0.5-1.8c-0.3-0.3-0.8-0.6-1.5-0.6
	c-0.5,0-0.6,0.1-0.2,0.3c0.7,0.3,1.3,1.3,1.7,2.6C242.9,115.7,243.1,115.8,243.2,115.5z M40.5,139.2c-0.5-0.3-0.6-1-0.1-1.4
	c0.1,0,0.5-0.3,0.9-0.5c0.9-0.5,1.4-0.8,1.7-1.4c0.5-0.9,0.5-0.3,0.5-10.7c0-7.4,0-9.5-0.1-9.8c-0.3-1.5-1.2-2.3-3-2.7
	c-1-0.2-1.2-0.3-1.3-0.7c-0.1-0.3,0.1-0.6,0.4-0.8c0.2-0.1,0.3-0.1,1-0.1c0.4,0,1.1,0.1,1.5,0.1c1.1,0.1,4.5,0.1,7-0.1
	c4.2-0.3,7.1-0.1,9.6,0.5c5.7,1.4,8.9,4.8,9.7,10c0.1,0.8,0.1,3.2,0,4.1c-0.2,1.1-0.4,2-0.7,3c-1.3,4-4.2,7.1-8,8.8
	c-2.8,1.3-5.5,1.6-9.7,1.3c-2.9-0.2-6.2-0.1-8.2,0.3C40.8,139.3,40.8,139.3,40.5,139.2z M43.3,137.1c1-0.7,1.4-1.4,1.6-3
	c0.1-0.5,0.1-3.4,0.1-9.8c0-8.4,0-9.1-0.1-9.5c-0.3-0.9-0.6-1.5-1.2-1.8c-0.4-0.3-1.2-0.6-1.2-0.5c0,0,0.2,0.2,0.4,0.4
	c0.7,0.5,1.2,1.2,1.3,2.2c0,0.3,0.1,4.1,0.1,9.7c0,9.9,0,9.8-0.3,10.8c-0.2,0.5-0.4,0.9-0.8,1.4C42.6,137.5,42.7,137.6,43.3,137.1z
	 M54.8,137c4-0.7,6.8-3.4,8-7.4c1-3.4,0.7-7.4-0.7-10.5c-1.4-3.2-4.2-5.5-7.5-6.2c-1.9-0.4-4.2-0.3-5.2,0.2c-0.7,0.4-1,0.9-1.1,2.2
	c-0.1,1-0.1,16.6,0,17.9c0.1,1.5,0.3,2.3,0.9,2.9c0.4,0.5,1.2,0.9,2.2,1.1C51.9,137.2,54.1,137.2,54.8,137z M59.9,135.7
	c3.5-2.3,5.1-5.8,5.1-10.7c0-2.3-0.4-4.1-1.2-6.1c-1.4-3.2-3.9-5.6-6.9-6.6c-0.9-0.3-1-0.3-1-0.2c0,0.1,0.3,0.2,0.7,0.4
	c1.7,0.7,3.5,2.1,4.7,3.8c0.5,0.8,1.3,2.3,1.7,3.3c0.3,0.8,0.6,2.1,0.8,3.2c0.2,1.2,0.2,3.9,0,5.2c-0.6,3.4-2,6-4.3,7.8
	c-0.2,0.1-0.2,0.3-0.1,0.3C59.4,136.1,59.7,135.9,59.9,135.7z M250.4,139.2c-0.5-0.3-0.6-1-0.1-1.4c0.1,0,0.5-0.3,0.9-0.5
	c0.9-0.5,1.4-0.8,1.7-1.4c0.5-0.9,0.5-0.3,0.5-10.7c0-10,0-9.9-0.3-10.7c-0.2-0.5-0.5-0.9-1.1-1.2c-0.6-0.4-0.8-0.5-1.8-0.7
	c-0.9-0.2-1.1-0.3-1.2-0.6c0-0.2,0-0.3,0.1-0.5c0.3-0.5,0.8-0.6,2.4-0.4c1.7,0.2,4.4,0.2,7.5,0c3.5-0.3,6.1-0.2,8.4,0.3
	c4.7,0.9,8,3,9.7,6.4c0.9,1.8,1.3,3.5,1.3,5.9c0,2.1-0.2,3.4-0.8,5.2c-1.4,4-4.3,7.1-8.2,8.8c-2.8,1.2-5.3,1.5-9.5,1.3
	c-2.9-0.2-6-0.1-8.2,0.3C250.5,139.3,250.6,139.3,250.4,139.2z M253.3,137c0.4-0.3,0.7-0.6,0.9-0.9c0.2-0.3,0.5-1.2,0.5-1.8
	c0.1-1,0.1-18.3,0-18.9c-0.3-1.4-0.9-2.2-2-2.6c-0.5-0.2-0.5-0.2-0.5-0.1c0,0,0.2,0.2,0.4,0.3c0.7,0.4,1.2,1.1,1.3,2
	c0.2,0.7,0.1,18.9,0,19.7c-0.2,1-0.4,1.6-1,2.3c-0.1,0.2-0.3,0.4-0.3,0.4C252.6,137.5,253,137.3,253.3,137z M264.2,137.1
	c3.4-0.5,6-2.3,7.5-5.2c1.9-3.5,2-8.6,0.4-12.5c-1.6-3.9-4.8-6.3-9-6.7c-0.8-0.1-2.5,0-3.1,0.1c-1.3,0.3-1.8,0.9-1.9,2.4
	c-0.1,1-0.1,16.7,0,18c0.1,1.4,0.3,2.2,0.9,2.9c0.4,0.5,1.2,0.9,2.2,1.1C261.8,137.2,263.4,137.2,264.2,137.1z M269.5,135.9
	c1.1-0.7,2.5-2,3.2-3c0.5-0.7,1.2-2,1.5-2.9c0.8-2.4,0.9-5.7,0.4-8.3c-0.6-2.6-1.7-4.7-3.5-6.5c-1.3-1.3-2.9-2.3-4.6-2.8
	c-0.7-0.2-0.7-0.2-0.6-0.1c0,0.1,0.3,0.2,0.7,0.4c1.2,0.5,2.2,1.2,3.2,2.1c2.1,2,3.4,4.8,3.9,8.1c0.2,1.1,0.2,3.9,0,5
	c-0.5,3.2-1.9,5.9-4,7.7c-0.5,0.4-0.7,0.6-0.5,0.6C269.2,136.1,269.4,136,269.5,135.9z M336.2,139.2c-0.3-0.2-0.4-0.4-0.4-0.7
	c0-0.5,0.2-0.6,1.2-1.1c0.5-0.2,1-0.6,1.2-0.7c0.4-0.3,0.7-0.9,0.9-1.5l0.2-0.6l0-9.3c0-8.6,0-9.4-0.1-9.9c-0.3-1.6-1.3-2.4-3.2-2.7
	c-0.3,0-0.6-0.1-0.7-0.2c-0.6-0.2-0.5-1,0.1-1.3c0.3-0.1,0.8-0.1,2,0c1.4,0.2,4.5,0.2,7.4,0c4.8-0.3,7.6-0.1,10.6,0.7
	c4.4,1.3,7.3,4,8.3,7.9c0.8,3,0.6,6.6-0.5,9.6c-1.8,4.7-5.6,8-10.7,9.2c-2,0.5-3.9,0.6-6.9,0.4c-2.9-0.2-5.9-0.1-8.2,0.3
	C336.4,139.3,336.5,139.3,336.2,139.2z M339,137.1c1.1-0.7,1.5-1.5,1.6-3.3c0-0.5,0.1-3.9,0-9.6c0-8.8,0-8.8-0.2-9.3
	c-0.3-1-0.8-1.7-1.5-2.1c-0.4-0.2-0.9-0.3-0.9-0.2c0,0,0.2,0.2,0.4,0.3c0.6,0.4,1,0.9,1.3,1.8c0.1,0.4,0.1,0.9,0.1,10.1
	c0,9.2,0,9.7-0.1,10.1c-0.2,0.6-0.7,1.6-1,2.1c-0.2,0.2-0.3,0.3-0.3,0.4C338.4,137.5,338.6,137.4,339,137.1z M350.6,137
	c1.9-0.4,3.4-1.1,4.8-2.4c0.8-0.7,1.3-1.3,1.8-2.3c0.8-1.4,1.4-3.1,1.6-4.9c0.2-1.7,0.1-4-0.3-5.6c-0.6-2.6-1.9-4.9-3.7-6.5
	c-2.1-1.9-5.2-2.9-8.2-2.6c-1.2,0.1-1.7,0.3-2.1,0.7c-0.4,0.4-0.6,0.8-0.7,1.7c0,0.3-0.1,3.9,0,9.6c0,9.8,0,9.5,0.4,10.6
	c0.4,1,1.3,1.7,2.7,1.9C347.8,137.3,349.8,137.2,350.6,137z M355.7,135.7c1.6-1.1,2.9-2.5,3.7-4.2c0.6-1.2,1-2.4,1.2-3.9
	c0.2-1,0.2-3.1,0.1-4.1c-0.5-4.8-2.9-8.7-6.7-10.6c-0.6-0.3-1.6-0.7-2.1-0.8c-0.2,0-0.2,0-0.2,0.1c0,0.1,0.3,0.2,0.7,0.4
	c1.3,0.6,2.3,1.2,3.3,2.2c2.1,2.1,3.5,5,3.9,8.4c0.1,1.1,0.1,3.5,0,4.5c-0.5,3.1-1.7,5.6-3.6,7.4c-0.3,0.3-0.6,0.5-0.7,0.6
	c-0.2,0.1-0.3,0.3-0.2,0.3C355.1,136.1,355.4,135.9,355.7,135.7z M169.5,139.1c-0.3-0.1-0.6-0.4-0.6-0.7c0-0.6,0.2-0.7,1.3-1
	c1-0.3,1.5-0.5,2-1c0.5-0.5,0.8-1,1-1.7l0.2-0.5l0-9.8c0-5.4,0-9.9-0.1-10.1c-0.1-0.4-0.3-0.7-0.8-0.8c-0.3-0.1-0.7-0.1-2-0.1
	c-4.5,0-5.6,0.7-6.4,4.1c-0.3,1-0.5,1.3-1.1,1.3c-0.3,0-0.4,0-0.5-0.2c-0.2-0.2-0.2-0.5,0-2.1c0.1-0.7,0.3-1.9,0.3-2.5
	c0.2-2.3,0.3-2.7,0.6-2.8c0.3-0.1,1.2-0.1,2.9,0.1c1.3,0.1,2.5,0.1,9.1,0.1c6.7,0,7.8,0,9.4-0.1c1-0.1,2.1-0.1,2.5-0.1
	c0.7,0,0.8,0,0.9,0.2c0.1,0.1,0.2,0.3,0.2,0.5c0,0.2,0.2,1.4,0.3,2.8c0.2,3,0.2,2.9-0.4,2.9c-0.6,0-0.7-0.1-0.9-0.8
	c-0.7-2.3-1.4-2.9-3.9-3.2c-0.9-0.1-4.2-0.1-4.5,0.1c-0.4,0.1-0.7,0.4-0.8,0.8c-0.1,0.3-0.2,11.1-0.1,16.6c0.1,3.6,0.1,3.8,0.2,4.2
	c0.2,0.7,0.6,1.3,1.1,1.6c0.5,0.4,1,0.6,1.9,0.7c0.9,0.2,1.2,0.3,1.3,0.6c0.1,0.3,0.1,0.5,0,0.8c-0.2,0.5-0.6,0.5-2.9,0.3
	c-2.2-0.2-5.1-0.2-7.3,0C170.7,139.2,169.7,139.2,169.5,139.1z M173.7,136.9c0.8-0.4,1.2-1.2,1.4-2.7c0.1-0.8,0.1-18.4,0-19.3
	c-0.1-0.8-0.3-1.3-0.6-1.7c-0.3-0.4-0.9-0.6-1-0.5c-0.1,0.1,0,0.1,0.2,0.3c0.1,0.1,0.3,0.4,0.4,0.5c0.1,0.2,0.1,0.6,0.1,10.6
	c0,9,0,10.4-0.1,10.9c-0.2,0.8-0.3,1.3-0.7,1.7C172.9,137.2,173,137.3,173.7,136.9z M164.1,115c0.5-1,1.4-1.8,2.8-2.3
	c0.3-0.1,0.6-0.2,0.6-0.3c0-0.1-1.2-0.2-1.8-0.1c-1.1,0.2-1.7,0.7-1.9,1.7c-0.1,0.5-0.2,1.5-0.1,1.5
	C163.8,115.6,164,115.3,164.1,115z M187.9,114.8c0-0.3-0.2-1.1-0.3-1.4c-0.2-0.4-0.5-0.6-0.9-0.8c-0.4-0.2-0.4-0.2-1.7-0.2
	c-1,0-1.3,0-1.3,0.1c-0.1,0.2,0,0.2,0.4,0.2c1,0,2,0.4,2.7,1c0.2,0.2,0.5,0.5,0.7,0.8c0.2,0.3,0.4,0.5,0.4,0.5
	S187.9,114.9,187.9,114.8z M287,139.2c0,0-0.7-0.1-1.4-0.2c-1.9-0.2-4.2-0.2-5.5,0c-1.5,0.3-1.8,0.2-2-0.3c-0.1-0.2-0.1-0.3,0-0.6
	c0.1-0.3,0.1-0.3,0.7-0.6c0.9-0.4,0.9-0.4,1.4-0.9c0.5-0.5,0.8-0.9,1.3-1.9c0.2-0.4,2.7-6,5.6-12.5c2.9-6.5,5.3-11.9,5.3-11.9
	c0.1-0.1,0.2-0.1,0.4-0.1c0.2,0,0.3,0,0.5,0.3c0.1,0.1,0.3,0.4,0.3,0.5c0.1,0.2,0.3,0.8,0.6,1.5c0.3,0.6,0.9,2.2,1.5,3.5
	c1.1,2.6,4.5,10.6,4.7,11.1c0.1,0.2,0.9,2,1.7,4c1.8,4.3,2,4.7,2.5,5.2c0.4,0.5,0.9,0.7,1.9,1c0.4,0.1,0.7,0.3,0.8,0.3
	c0.1,0.1,0.1,0.1,0.2,0c0,0,0.4-0.3,0.9-0.5c1.4-0.7,1.9-1.3,2.2-2.7c0.1-0.5,0.1-1.6,0.1-10c0-10.4,0-9.7-0.5-10.6
	c-0.4-0.8-1.1-1.2-2.4-1.5c-1.1-0.2-1.2-0.3-1.2-0.9c0-0.4,0.1-0.6,0.4-0.7c0.2-0.1,0.6-0.1,2.7,0.1c1.6,0.1,4.2,0.1,6.2,0
	c2.4-0.2,5-0.2,6.1-0.1c3.4,0.4,5.6,1.7,6.7,4c0.5,1.1,0.8,2.4,0.7,3.8c-0.1,2.8-1.5,4.6-4.5,5.7c-0.3,0.1-0.6,0.2-0.6,0.2
	c0,0,0.1,0.2,0.3,0.3c0.5,0.5,0.3,0,4.3,7.5c0.3,0.5,0.6,1.1,0.8,1.4c0.7,1.3,1.3,2,1.9,2.3c0.3,0.2,0.4,0.2,1.3,0.2
	c0.9,0,1,0,1.1,0.1c0.7,1-2,2.5-4.3,2.4c-1.8-0.1-3.2-1.2-4.9-3.9c-0.2-0.4-1.1-2.2-2.1-4c-1.7-3.4-2.2-4.3-2.6-4.6
	c-0.6-0.5-1.6-0.7-2.9-0.6c-1.1,0.1-1.4,0.3-1.5,1c-0.1,0.4-0.1,6.2,0,7.2c0.1,1.2,0.4,2.1,1,2.6c0.4,0.4,0.9,0.6,1.6,0.8
	c0.7,0.2,1,0.3,1.1,0.6c0.2,0.3,0.1,0.8-0.1,1c-0.2,0.2-0.6,0.3-2.1,0.1c-1.9-0.2-4.9-0.2-7.3,0c-1.6,0.2-1.7,0.2-2,0.1
	c-0.3-0.1-0.3-0.1-0.5,0c-0.2,0.1-0.5,0.1-2.8-0.1c-2.3-0.2-4.7-0.2-7.8,0.2l-0.7,0.1l-0.2-0.2c-0.2-0.2-0.3-0.7-0.1-1
	c0.1-0.1,0.5-0.3,1-0.6c1.4-0.7,1.8-1.2,1.7-2.4c0-0.7-0.1-1-0.9-2.8c-0.8-1.9-1-2.3-1.4-2.6c-0.5-0.5-0.4-0.5-4.9-0.5
	c-4.5,0-4.6,0-5.1,0.5c-0.4,0.3-0.6,0.7-1,1.9c-0.2,0.5-0.5,1.5-0.7,2c-0.3,1-0.4,1.1-0.4,1.6c0,0.7,0.1,1,0.6,1.4
	c0.4,0.4,1,0.6,2.2,0.9c1.3,0.3,1.4,0.4,1.4,0.9c0,0.4-0.1,0.6-0.4,0.7C287.8,139.2,287.2,139.2,287,139.2z M329.5,138.4
	c0,0-0.2-0.2-0.4-0.4c-0.8-0.6-1.8-1.9-2.9-3.8c-0.3-0.5-1.1-2-1.7-3.4c-2.1-4.1-2.5-5-2.8-5.2c-0.3-0.2-0.7-0.3-0.9-0.2
	c-0.3,0.1-0.2,0.2,0.1,0.7c0.2,0.3,0.7,1.1,1.6,3c2.9,5.7,3,6,3.7,6.9c0.9,1.2,1.7,1.9,2.7,2.3C329.4,138.5,329.5,138.6,329.5,138.4
	z M280.5,137.9c0.8-0.2,1.5-0.7,1.9-1.4c0.2-0.4,0.4-1.2,0.4-2.1c0-0.6,0-0.6-0.1-0.6c-0.1,0-0.2,0.1-0.3,0.4
	c-0.2,0.6-0.8,1.7-1.1,2.1c-0.3,0.4-0.8,1-1.2,1.3C279.7,138,279.8,138.1,280.5,137.9z M298.8,137.1c0.4-0.3,0.7-0.6,0.9-1.1
	c0.2-0.3,0.2-0.4,0.2-1.4c0-1.5,0.1-1.2-2.1-6.5c-0.4-0.9-0.7-1.8-0.8-2c-0.1-0.2-0.5-1.2-0.9-2.1c-0.4-1-1.1-2.5-1.5-3.5
	c-0.4-1-0.9-2.2-1.2-2.8c-0.6-1.4-0.7-1.6-0.9-1.7c-0.1-0.1-0.2-0.1-0.4,0.1c-0.3,0.2-0.3,0.7-0.1,1.1c0.1,0.2,0.3,0.6,0.4,0.9
	c0.1,0.3,0.3,0.8,0.5,1.2c5.9,14.1,6,14.3,6.1,14.9c0.1,0.6,0.1,1.6,0,2.1c-0.1,0.2-0.2,0.5-0.4,0.7c-0.1,0.2-0.3,0.4-0.2,0.4
	C298.4,137.3,298.6,137.2,298.8,137.1z M310.7,137.1c0.9-0.4,1.3-1.3,1.5-3c0.1-0.7,0.2-16.9,0.1-18.1c-0.1-1-0.2-1.5-0.5-2.1
	c-0.3-0.6-1-1.3-1.7-1.5l-0.3-0.1l0.4,0.4c0.5,0.5,0.8,1.1,1,1.9c0.1,0.4,0.1,1.1,0.1,9.5c0,9.4,0,10.1-0.3,11.1
	c-0.2,0.6-0.5,1.3-0.9,1.7c-0.1,0.2-0.2,0.3-0.2,0.3C310.1,137.3,310.3,137.3,310.7,137.1z M294.8,126.9c0.2-0.1,0.2-0.2,0.3-0.4
	c0-0.3-0.1-0.7-1.3-3.5c-0.6-1.4-1.3-3-1.6-3.7c-0.6-1.4-0.7-1.6-1.1-1.4c-0.2,0.1-0.3,0.3-1.5,3c-0.5,1.1-1.2,2.7-1.5,3.5
	c-0.9,2.1-0.9,2.4,0,2.5c0.2,0,1.7,0.1,3.4,0C294.4,127.1,294.6,127.1,294.8,126.9z M320.7,123.9c2.2-0.3,3.4-1.4,3.7-3.2
	c0.2-0.9,0.1-2.6-0.1-3.6c-0.7-2.8-2.7-4.4-5.7-4.6c-0.7,0-1.5,0.1-1.9,0.3c-0.3,0.2-0.6,0.5-0.8,1c-0.1,0.3-0.1,0.7-0.2,4.8
	c0,3.9,0,4.4,0.1,4.7c0.2,0.5,0.6,0.7,1.6,0.8C318.1,124.1,320,124,320.7,123.9z M324.5,122.7c0.9-0.9,1.4-2,1.6-3.5
	c0.1-1.2-0.1-2.5-0.6-3.5c-0.7-1.4-1.8-2.4-3.3-2.9c-0.6-0.2-0.6-0.2-0.2,0.1c1.2,0.9,1.8,1.7,2.4,2.8c0.6,1.2,0.7,1.6,0.7,3.2
	c0,1.1,0,1.5-0.1,1.9c-0.1,0.6-0.5,1.4-0.8,1.9c-0.3,0.5-0.3,0.5-0.2,0.5C324,123.2,324.2,122.9,324.5,122.7z M71.3,139.1
	c-0.4-0.2-0.5-0.9-0.2-1.3c0.1-0.1,0.5-0.3,0.9-0.6c1.5-0.8,2.1-1.6,2.2-3.5c0.1-1,0-18.3-0.1-18.7c-0.2-0.8-0.8-1.6-1.5-1.9
	c-0.4-0.2-0.7-0.3-1.7-0.5c-1-0.2-1.2-0.3-1.2-0.9c0-0.7,0.4-0.9,1.7-0.7c3,0.3,8.9,0.3,13.9,0.1c1.6-0.1,3.3-0.1,3.8-0.1
	c0.9,0,0.9,0,1.1,0.2c0.1,0.1,0.2,0.3,0.2,0.5c0,0.2,0.1,1.5,0.1,2.9l0,2.5l-0.2,0.1c-0.1,0.1-0.3,0.1-0.5,0.1
	c-0.4,0-0.6-0.2-0.6-0.6c-0.1-1.1-0.2-1.4-0.4-1.7c-0.3-0.5-0.9-1.1-1.4-1.4c-1-0.5-2.2-0.7-4.3-0.8c-2.1-0.1-2.9,0.1-3.5,0.6
	c-0.6,0.5-0.6,0.4-0.6,4.6c0,2.6,0,3.8,0.1,4c0.1,0.4,0.5,0.8,0.9,0.9c0.5,0.1,3.2,0.1,3.7-0.1c1.1-0.3,1.6-0.9,2.3-2.1
	c0.2-0.5,0.5-0.9,0.6-1c0.2-0.2,0.6-0.3,0.9-0.2c0.3,0.1,0.4,0.3,0.3,1.9c-0.1,1.6-0.1,3.6,0.1,5.5c0.1,1.6,0.1,2.1,0,2.2
	c-0.2,0.2-0.8,0.2-1,0c-0.1-0.1-0.2-0.3-0.4-1.4c-0.1-0.7-0.6-1.6-1-2c-0.8-0.7-1.4-0.8-3.7-0.8c-1.6,0-1.8,0-2,0.1
	c-0.2,0.1-0.3,0.2-0.4,0.4c-0.3,0.4-0.3,0.7-0.3,5.1c0,4.9,0,5.2,0.5,5.7c0.4,0.5,1.2,0.7,2.6,0.7c2.7,0,5.4-0.9,7.1-2.3
	c0.7-0.5,1-0.9,1.6-1.9c0.5-0.8,0.7-1,1-0.9c0.7,0,0.7,1.2,0.1,2.9c-0.8,2.3-1.9,3.6-3.6,4.1c-1.2,0.4-2.7,0.5-5.8,0.2
	c-2.3-0.2-6.6-0.2-8.4,0C72.3,139.2,71.6,139.2,71.3,139.1z M87.5,137.5c1.1-0.3,2.2-1,2.8-1.8c0.4-0.6,0.8-1.6,0.7-1.6
	c0,0-0.3,0.3-0.7,0.7c-1.3,1.3-2.8,2-4.8,2.5c-1.1,0.2-1,0.2-0.9,0.3C84.7,137.7,86.6,137.7,87.5,137.5z M74.2,137
	c0.7-0.4,1.2-1.2,1.5-2.2c0.2-1.2,0.3-2.1,0.2-10.8c0-9.4,0-9-0.5-10c-0.3-0.7-1.1-1.4-1.9-1.6c-0.1,0-0.1,0,0.1,0.3
	c0.6,0.6,1,1.4,1.2,2.3c0.1,0.7,0.2,15.5,0.1,17.8c0,1.1-0.1,1.9-0.2,2.2c-0.2,0.6-0.5,1.4-0.9,1.8c-0.2,0.2-0.3,0.4-0.3,0.4
	C73.5,137.3,73.8,137.2,74.2,137z M86.1,124.5c0-1.3-0.1-1.9-0.2-1.9c0,0-0.3,0.2-0.5,0.4c-0.3,0.3-0.6,0.5-0.9,0.6
	c-0.3,0.1-0.4,0.2-0.4,0.3c0,0.1,0.2,0.2,0.5,0.3c0.3,0.1,0.7,0.3,0.9,0.4c0.2,0.2,0.4,0.3,0.5,0.3
	C86.1,124.8,86.2,124.7,86.1,124.5z M89.6,114.2c-0.1-0.7-0.2-1.1-0.6-1.5c-0.4-0.4-0.7-0.5-1.5-0.6c-0.7-0.1-1.9,0-1.9,0.1
	c0,0.1,0.1,0.1,0.3,0.1c0.6,0.1,1.4,0.3,1.9,0.6c0.6,0.3,1.1,0.7,1.5,1.2C89.6,114.7,89.7,114.7,89.6,114.2z M94.2,139.1
	c-0.3-0.1-0.5-0.4-0.4-0.8c0-0.4,0.2-0.6,1.2-1c1.3-0.6,1.8-1.3,2.1-2.5c0.1-0.5,0.1-1.1,0.1-9.8c0-9.8,0-9.7-0.3-10.6
	c-0.2-0.5-0.8-1.2-1.3-1.4c-0.2-0.1-0.7-0.3-1.2-0.4c-0.4-0.1-0.9-0.2-1-0.3c-0.4-0.2-0.4-0.8-0.1-1.2c0.2-0.2,0.2-0.2,0.8-0.2
	c0.3,0,1.2,0.1,1.9,0.1c1.8,0.2,4.2,0.2,7,0c4.1-0.3,6.1-0.2,8,0.5c2.7,0.9,4.3,2.6,4.7,5.2c0.2,0.8,0.1,2.8-0.1,3.4
	c-0.2,0.6-0.7,1.6-1.1,2.1c-0.7,0.9-1.8,1.6-3.1,2.1l-0.7,0.3l0.4,0.4c0.4,0.4,0.6,0.8,1.3,1.9c2.5,4.8,4.1,7.6,4.3,8
	c0.4,0.6,0.9,1.1,1.3,1.3c0.3,0.1,0.4,0.1,1.3,0.1c1.1,0,1.2,0,1.2,0.6c-0.1,0.9-2,1.8-3.9,1.9c-1.3,0.1-2-0.2-3.1-1
	c-1.3-1-2.1-2.4-4.4-6.9c-1.7-3.5-2-3.9-2.5-4.5c-0.6-0.7-1.6-0.9-3.1-0.9c-0.9,0-1.2,0.2-1.4,0.5c-0.1,0.2-0.1,0.4-0.1,4.1
	c0,3.5,0,3.9,0.1,4.4c0.3,1.1,0.8,1.9,1.6,2.3c0.2,0.1,0.6,0.2,1,0.3c1,0.3,1.2,0.4,1.2,1c0,0.4-0.2,0.7-0.5,0.8
	c-0.2,0.1-0.5,0.1-1.7-0.1c-2-0.2-5.1-0.2-7.3,0C94.7,139.2,94.6,139.2,94.2,139.1z M116,138.4c0,0,0-0.1-0.1-0.1
	c-0.2-0.1-1.1-0.9-1.5-1.4c-0.4-0.5-1.1-1.5-1.5-2.2c-0.3-0.5-1.3-2.5-3.4-6.6c-1.1-2.2-1.3-2.5-1.8-2.6c-0.3-0.1-0.6,0-0.7,0.2
	c0,0.1,0.1,0.3,0.3,0.5c0.2,0.3,0.8,1.4,2,3.8c1.9,3.8,2.4,4.8,3,5.6c1,1.5,1.9,2.4,3.1,2.8C115.8,138.5,115.9,138.5,116,138.4z
	 M97.1,137.1c0.7-0.3,1.2-1,1.4-2c0.3-1,0.3-2.1,0.3-11.1c0-7.8,0-8.7-0.1-9.1c-0.3-1.3-1-2-2.1-2.4l-0.3-0.1l0.3,0.3
	c0.4,0.4,0.8,1,1.1,1.7l0.2,0.6v9.8v9.8l-0.2,0.6c-0.2,0.7-0.5,1.3-0.9,1.8C96.5,137.3,96.5,137.4,97.1,137.1z M107.3,123.9
	c2.5-0.4,3.6-1.7,3.7-4.2c0.1-1.4-0.2-2.7-0.7-3.9c-0.9-1.9-2.5-2.9-4.8-3.2c-1.9-0.2-2.8,0.2-3.2,1.3c-0.2,0.5-0.2,0.5-0.2,4.9
	c0,4,0,4.4,0.1,4.6c0.2,0.5,0.6,0.6,1.6,0.7C104.6,124.1,106.6,124,107.3,123.9z M111.1,122.6c1-1.1,1.6-2.7,1.5-4.5
	c-0.1-2-1-3.6-2.5-4.7c-0.4-0.3-1.4-0.7-1.7-0.8c-0.3-0.1-0.3-0.1,0.4,0.5c1.5,1.2,2.3,2.6,2.7,4.3c0.1,0.7,0.1,2.5-0.1,3.3
	c-0.2,0.7-0.5,1.5-0.9,2C110.1,123.4,110.4,123.3,111.1,122.6z"/>
</svg>
