<svg width="147" height="33" viewBox="0 0 147 33" fill="none" xmlns="http://www.w3.org/2000/svg">
<path d="M0.763672 29.3955V23.3867H8.86426V24.4326C8.86426 25.3896 8.99414 26.0664 9.25391 26.4629C9.52734 26.8457 9.95801 27.0371 10.5459 27.0371C11.0654 27.0371 11.4824 26.8799 11.7969 26.5654C12.1113 26.2373 12.2686 25.8066 12.2686 25.2734C12.2686 24.0977 10.7578 23.1611 7.73633 22.4639C4.79688 21.7939 2.85547 20.9873 1.91211 20.0439C0.982422 19.1006 0.517578 17.6787 0.517578 15.7783C0.517578 13.4131 1.2832 11.6426 2.81445 10.4668C4.3457 9.27734 6.65625 8.68262 9.74609 8.68262C11.7832 8.68262 13.6768 8.93555 15.4268 9.44141C17.1768 9.94727 18.7422 10.6924 20.123 11.6768V17.0908H12.1455V15.9629C12.1455 15.2656 11.9951 14.7256 11.6943 14.3428C11.4072 13.96 10.9971 13.7686 10.4639 13.7686C9.97168 13.7686 9.55469 13.9395 9.21289 14.2812C8.87109 14.6094 8.7002 15.0127 8.7002 15.4912C8.7002 16.5029 10.0059 17.2891 12.6172 17.8496H12.6582C15.8438 18.5469 17.9561 19.3945 18.9951 20.3926C20.0342 21.377 20.5537 22.8535 20.5537 24.8223C20.5537 27.4062 19.7812 29.3135 18.2363 30.5439C16.6914 31.7607 14.2852 32.3691 11.0176 32.3691C9.02148 32.3691 7.16211 32.123 5.43945 31.6309C3.73047 31.125 2.17188 30.3799 0.763672 29.3955ZM33.3096 23.8174C33.3096 24.7061 33.3916 25.3828 33.5557 25.8477C33.7197 26.3125 33.9863 26.6406 34.3555 26.832V32H23.6504V26.832C24.0332 26.7227 24.3135 26.4355 24.4912 25.9707C24.6826 25.4922 24.7783 24.8154 24.7783 23.9404V16.6602C24.7783 15.9082 24.6963 15.3613 24.5322 15.0195C24.3682 14.6777 24.0742 14.418 23.6504 14.2402V9.07227H32.9814V10.6309C33.8428 10.0293 34.7725 9.57812 35.7705 9.27734C36.7686 8.97656 37.7939 8.82617 38.8467 8.82617C40.0908 8.82617 41.1572 9.02441 42.0459 9.4209C42.9482 9.81738 43.6455 10.3984 44.1377 11.1641C45.0947 10.3984 46.1338 9.81738 47.2549 9.4209C48.376 9.02441 49.5244 8.82617 50.7002 8.82617C52.9287 8.82617 54.5352 9.40039 55.5195 10.5488C56.5039 11.6836 56.9961 13.5977 56.9961 16.291V23.8584C56.9961 24.8838 57.0713 25.5947 57.2217 25.9912C57.3857 26.3877 57.6592 26.668 58.042 26.832V32H48.8955C48.7314 31.2344 48.6084 30.2773 48.5264 29.1289C48.458 27.9805 48.4238 25.9434 48.4238 23.0176V18.0137C48.4238 16.8242 48.2803 16.0176 47.9932 15.5938C47.7061 15.1699 47.207 14.958 46.4961 14.958C46.332 14.958 46.1475 14.9785 45.9424 15.0195C45.7373 15.0605 45.4775 15.1357 45.1631 15.2451V23.8584C45.1631 24.9248 45.2314 25.6494 45.3682 26.0322C45.5186 26.415 45.7852 26.6816 46.168 26.832V32H37.042C36.8779 31.2344 36.7617 30.2773 36.6934 29.1289C36.625 27.9805 36.5908 25.9434 36.5908 23.0176V18.0137C36.5908 16.8242 36.4404 16.0176 36.1396 15.5938C35.8525 15.1699 35.3604 14.958 34.6631 14.958C34.4717 14.958 34.2666 14.9785 34.0479 15.0195C33.8428 15.0605 33.5967 15.1357 33.3096 15.2451V23.8174ZM69.916 16.6602V17.501H73.2793V16.6602C73.2793 15.6621 73.1494 14.9648 72.8896 14.5684C72.6299 14.1719 72.1992 13.9736 71.5977 13.9736C70.9961 13.9736 70.5654 14.1787 70.3057 14.5889C70.0459 14.999 69.916 15.6895 69.916 16.6602ZM69.916 24.3916C69.916 25.4033 70.0391 26.1143 70.2852 26.5244C70.5449 26.9209 70.9824 27.1191 71.5977 27.1191C72.1855 27.1191 72.6094 26.9141 72.8691 26.5039C73.1426 26.0938 73.2793 25.3896 73.2793 24.3916V23.7764H81.79V29.4365C80.6689 30.3936 79.1992 31.125 77.3809 31.6309C75.5625 32.123 73.4639 32.3691 71.085 32.3691C67.5439 32.3691 65.0488 31.7471 63.5996 30.5029C62.1504 29.2588 61.4258 27.0986 61.4258 24.0225V17.0498C61.4258 13.9189 62.1572 11.7451 63.6201 10.5283C65.0967 9.29785 67.7559 8.68262 71.5977 8.68262C75.3711 8.68262 78.0098 9.3457 79.5137 10.6719C81.0312 11.998 81.79 14.3223 81.79 17.6445V22.2588H69.916V24.3916ZM95.1201 23.8174C95.1201 24.7334 95.1953 25.417 95.3457 25.8682C95.5098 26.3193 95.7695 26.6406 96.125 26.832V32H85.4199V26.832C85.8027 26.7227 86.083 26.4355 86.2607 25.9707C86.4521 25.4922 86.5479 24.8154 86.5479 23.9404V16.6602C86.5479 15.9082 86.4658 15.3613 86.3018 15.0195C86.1377 14.6777 85.8438 14.418 85.4199 14.2402V9.07227H95.1201V23.8174ZM95.0381 4.15039C95.0381 5.16211 94.6074 6.00293 93.7461 6.67285C92.8848 7.34277 91.791 7.67773 90.4648 7.67773C89.1387 7.67773 88.0449 7.34277 87.1836 6.67285C86.3223 5.98926 85.8916 5.14844 85.8916 4.15039C85.8916 3.15234 86.3223 2.31836 87.1836 1.64844C88.0449 0.964844 89.1387 0.623047 90.4648 0.623047C91.7773 0.623047 92.8643 0.964844 93.7256 1.64844C94.6006 2.31836 95.0381 3.15234 95.0381 4.15039ZM111.444 25.7861L111.465 15.2861C111.191 15.1494 110.938 15.0537 110.706 14.999C110.487 14.9443 110.262 14.9102 110.029 14.8965C109.346 14.8965 108.867 15.0879 108.594 15.4707C108.32 15.8535 108.184 16.7148 108.184 18.0547V23.0586C108.184 24.2207 108.327 25.0137 108.614 25.4375C108.915 25.8613 109.428 26.0732 110.152 26.0732C110.357 26.0732 110.562 26.0527 110.768 26.0117C110.986 25.957 111.212 25.8818 111.444 25.7861ZM111.465 8.99023C111.465 7.97852 111.383 7.25391 111.219 6.81641C111.055 6.37891 110.768 6.0918 110.357 5.95508V0.787109H120.017V24.3916C120.017 25.1709 120.099 25.7314 120.263 26.0732C120.44 26.415 120.741 26.668 121.165 26.832V32H111.834V30.4414C110.986 31.0293 110.063 31.4736 109.065 31.7744C108.081 32.0615 107.042 32.2051 105.948 32.2051C103.692 32.2051 102.079 31.6377 101.108 30.5029C100.138 29.3545 99.6523 27.3789 99.6523 24.5762V17.4189C99.6523 14.1514 100.138 11.9092 101.108 10.6924C102.079 9.47559 103.72 8.86719 106.03 8.86719C106.892 8.86719 107.78 8.97656 108.696 9.19531C109.626 9.41406 110.549 9.73535 111.465 10.1592V8.99023ZM145.59 9.07227V24.3916C145.59 25.1982 145.672 25.7725 145.836 26.1143C146.014 26.4424 146.294 26.6816 146.677 26.832L146.697 32H137.366V30.4414C136.505 31.0293 135.582 31.4736 134.598 31.7744C133.627 32.0615 132.602 32.2051 131.521 32.2051C129.266 32.2051 127.646 31.6377 126.661 30.5029C125.677 29.3545 125.185 27.4336 125.185 24.7402V17.2139C125.185 16.1338 125.109 15.4092 124.959 15.04C124.822 14.6572 124.562 14.3906 124.18 14.2402V9.07227H133.285C133.449 9.87891 133.565 10.8633 133.634 12.0254C133.716 13.1738 133.757 15.1836 133.757 18.0547V23.0586C133.757 24.2344 133.9 25.0342 134.188 25.458C134.475 25.8682 134.974 26.0732 135.685 26.0732C135.944 26.0732 136.184 26.0527 136.402 26.0117C136.621 25.9707 136.826 25.9092 137.018 25.8271V17.2549C137.018 16.3252 136.942 15.6416 136.792 15.2041C136.642 14.7529 136.382 14.4316 136.013 14.2402V9.07227H145.59Z" fill="white"/>
</svg>
