<svg id="Layer_1" data-name="Layer 1" xmlns="http://www.w3.org/2000/svg" viewBox="0 0 120 120"><defs><style>.cls-1{fill:#e3693b;}.cls-2{fill:#fff;}</style></defs><path class="cls-1" d="M60,5.12A65.9,65.9,0,0,0,38.18,8.79,7,7,0,0,0,37,7.66a7.94,7.94,0,0,0-2.91-1.34h0a3,3,0,0,0-2.83.9,2.94,2.94,0,0,0-.67,1.16,8,8,0,0,0-1.87-.7h0a3,3,0,0,0-3.36,1.69A7.48,7.48,0,0,0,18.7,5.6H17.43a3,3,0,0,0-2.81,4,10.74,10.74,0,0,1-.43,2.22h0L7.92,31.61v.05a4.28,4.28,0,0,0-.17.79A49.22,49.22,0,0,0,0,58.87C0,72.65,5.78,85.21,15.3,94.72a165.13,165.13,0,0,1-6.78,15.36,124.13,124.13,0,0,0,18.12-6.53A64.71,64.71,0,0,0,60,112.62c33.13,0,60-24.07,60-53.75S93.13,5.12,60,5.12Z"/><path class="cls-2" d="M31.23,73.15C24.1,71,29,37.16,36.49,35.55c4.1-.87.92,13.23.92,13.23s9.11-12.21.75-16.74c-5.43-2.94-15.32,7-17.9,23.32-2.65,16.71,1.21,25,7.66,25,9.57,0,15.47-14.29,15.47-14.29S36.2,74.63,31.23,73.15Z"/><path class="cls-2" d="M104.08,70.64a2.46,2.46,0,1,0,2.46,2.46A2.47,2.47,0,0,0,104.08,70.64Z"/><path class="cls-2" d="M78.47,71.64a4.52,4.52,0,0,1-.87-3.18l.35-3s0-.11.46-3.93a7.24,7.24,0,0,1,3.66-5.26,5.5,5.5,0,0,1,2.78-.61c3,.15,3.47-4.32.47-4.69a4.41,4.41,0,0,0-.83,0c-3.92.21-6,4.67-6.34,5.47-1.35-3-4.9-3.81-5.12-3.86h0a13.53,13.53,0,0,1,.32,5C73,60.75,72.1,68.1,72.1,68.1A13,13,0,0,0,72,69.51c-1.27.84-3.11,1.69-4,.42a2.5,2.5,0,0,1-.36-2c.42-3,.74-6.31,1-8.83.24-2-.19-4.35-3.24-5.31a6.16,6.16,0,0,0-5.26.71l-.09.05h0a11.66,11.66,0,0,0-3.42,3.64c-3.91,5.93-5.29,15.48-.77,17,2.11.72,4.44-.39,6.52-2.44a3.75,3.75,0,0,0,2.75,2.67c2.6.56,5.34-2.67,6.9-4.92.12,1.66.59,3.69,2.08,4.46,4,2,7.24-2.62,7.24-2.62A3.07,3.07,0,0,1,78.47,71.64Zm-19,.13c-2.92,0-1.09-15.28,2.59-15.17a.4.4,0,0,1,.24.07h0C64.07,57.82,61.73,71.77,59.45,71.77Z"/><path class="cls-2" d="M50.22,71.64a4.58,4.58,0,0,1-.87-3.18l.36-3s1.09-9.28,1.74-14.79c.69-5.84-5.29-7.22-5.58-7.29h0a13.6,13.6,0,0,1,.32,5.05c-.35,3.16-2.32,19.65-2.32,19.65s-.66,5.54,2,6.94c4,2,7.23-2.62,7.23-2.62A3.07,3.07,0,0,1,50.22,71.64Z"/><path class="cls-2" d="M96.24,69.93a2.5,2.5,0,0,1-.36-2c.42-3,.74-6.31,1-8.83.24-2-.2-4.35-3.25-5.31a6.16,6.16,0,0,0-5.26.71l-.08.05h0a11.54,11.54,0,0,0-3.42,3.64c-3.91,5.93-5.29,15.48-.77,17,2.11.72,4.44-.39,6.52-2.44a3.73,3.73,0,0,0,2.75,2.67c3.94.84,8.2-7,8.2-7S97.72,72,96.24,69.93Zm-8.55,1.84c-2.92,0-1.1-15.28,2.59-15.17a.44.44,0,0,1,.24.07h0C92.31,57.82,90,71.77,87.69,71.77Z"/><path class="cls-2" d="M41.17,23.82a1.11,1.11,0,0,1-.82-.61A5.25,5.25,0,0,1,40.08,21c1.21-.19,4.06-1,4.62-4.07.61-3.29-1.35-3.4-1.73-3.38a3.57,3.57,0,0,0-1.7.55l0,0h0a6.56,6.56,0,0,0-1.9,2c-2.16,3.28-2.92,8.56-.42,9.42l.23.06.25.05c2.88.21,4.39-3.52,4.39-3.52S42.28,23.92,41.17,23.82Zm1.13-8.56c.28,0,.81.25.54,1.82a3.15,3.15,0,0,1-2.66,2.63C40.46,17.52,41.24,15.23,42.3,15.26Z"/><path class="cls-2" d="M28.09,28.1c2.21,1.14,4-1.45,4-1.45a1.71,1.71,0,0,1-1.62-.43A2.52,2.52,0,0,1,30,24.46l.2-1.65s.6-5.13,1-8.18c.38-3.23-2.92-4-3.09-4h0a7.65,7.65,0,0,1,.18,2.8C28,15.14,27,24.26,27,24.26S26.59,27.33,28.09,28.1Z"/><path class="cls-2" d="M33.47,26.75c2.21,1.13,4-1.45,4-1.45a1.71,1.71,0,0,1-1.62-.43,2.52,2.52,0,0,1-.48-1.76l.2-1.66s.6-5.12,1-8.17c.38-3.23-2.93-4-3.09-4h0A7.58,7.58,0,0,1,33.63,12c-.2,1.75-1.29,10.87-1.29,10.87S32,26,33.47,26.75Z"/><path class="cls-2" d="M47.33,21.26c-1.1,1-3,.09-3,.09a2.93,2.93,0,0,0,1.39,2,3.43,3.43,0,0,0,4.61-1.45c.75-1.58-.13-3.74-1.64-4.83-1.9-1.39-2.3-2.52-1.68-3.17.41-.44,1.3-.49,1.78.68v0h0a1.2,1.2,0,0,0,1.1.72,1.21,1.21,0,0,0,.84-2.09h0s-1.87-1.8-3.91-.73a2.83,2.83,0,0,0-.73,4.43C47.38,18.24,48.7,20,47.33,21.26Z"/><path class="cls-2" d="M22.84,29.1c.52,3.42,4.36,1.74,4.36,1.74-.9-.39-1.46-3.49-1.46-3.49L23.36,12.8a4.53,4.53,0,0,0-4.69-4.2H17.43c.58,1-.37,4.14-.37,4.14h0L10.78,32.51c-.59,2,1.85,3,1.85,3l1.94-6.21a5.76,5.76,0,0,1,2.88-3.69l4.6-1.75C22.39,26.14,22.69,28.09,22.84,29.1ZM20,21.86l-2.5.95a4.57,4.57,0,0,0-1.13.7L20,12a15.79,15.79,0,0,1,.63,2.53l.08.51h0c.3,2,.68,4.48,1,6.88A2,2,0,0,0,20,21.86Z"/></svg>