<?xml version="1.0" encoding="utf-8"?>
<!-- Generator: Adobe Illustrator 25.4.1, SVG Export Plug-In . SVG Version: 6.00 Build 0)  -->
<svg version="1.1" id="Layer_1" xmlns="http://www.w3.org/2000/svg" xmlns:xlink="http://www.w3.org/1999/xlink" x="0px" y="0px"
	 viewBox="0 0 400 240" style="enable-background:new 0 0 400 240;" xml:space="preserve">
<style type="text/css">
	.st0{fill:#999999;}
	.st1{fill:#FFFFFF;}
</style>
<g>
	<rect x="288.1" y="90" class="st0" width="58.9" height="60"/>
	<rect x="170.8" y="90" class="st0" width="58.9" height="60"/>
	<rect x="53" y="90" class="st0" width="58.9" height="60"/>
	<path class="st0" d="M156.3,106.3v-6.8h-28.5v6.8c0,0,9.4,0,9.9,0v27c-0.5,0-9.9,0-9.9,0v6.8h28.5v-6.8c0,0-10.3,0-10.8,0v-27
		C146,106.3,156.3,106.3,156.3,106.3z"/>
	<path class="st1" d="M211.7,121.5c0,0,6.1-0.5,6.1-11.5c0-11-10.1-10.4-10.1-10.4h-23.4v40.4h7.9v-15.7c0,0,8.1-0.2,12.8-0.2
		c4.7,0,4.7,6.8,4.7,6.8v8.8h8.1c0,0,0-0.9,0-9.4C217.8,121.9,211.7,121.5,211.7,121.5z M203.4,117.6c-5,0-11.2,0.2-11.2,0.2v-11.2
		h11.3c0,0,6.1-0.9,6.1,4.9C209.7,116.5,208.5,117.6,203.4,117.6z"/>
	<polygon class="st0" points="240.5,99.6 240.5,106.2 246.1,106.2 246.1,133.4 240.5,133.4 240.5,140.1 274.9,140.1 274.9,126.9 
		268.1,126.9 268.1,133.4 253.5,133.4 253.5,122.4 264.3,122.4 264.3,115.8 253.5,115.8 253.5,106.2 267.6,106.2 267.6,112.7 
		274.9,112.7 274.9,99.6 	"/>
	<path class="st1" d="M336.7,125.3V114c0-16.2-18-14.2-18-14.2h-17.5v40.9c0,0,6.7-0.2,21.4-0.2
		C337.5,140.4,336.7,125.3,336.7,125.3z M328.6,125.5c0,0-0.2,7.9-6.3,7.9c-6.1,0-12.8,0-12.8,0v-27h12.2c0,0,6.8-0.5,6.8,8.6
		C328.6,124.2,328.6,125.5,328.6,125.5z"/>
	<polygon class="st1" points="58,99.7 66.2,99.7 71.7,130.5 78.9,99.7 87.8,99.9 95,131.1 100.4,99.7 108.1,99.7 99.8,140.1 
		89.7,140.1 83.3,110.7 76.2,140.3 66.3,140.3 	"/>
</g>
</svg>
