<?xml version="1.0" encoding="utf-8"?>
<!-- Generator: Adobe Illustrator 25.4.1, SVG Export Plug-In . SVG Version: 6.00 Build 0)  -->
<svg version="1.1" id="Layer_1" xmlns="http://www.w3.org/2000/svg" xmlns:xlink="http://www.w3.org/1999/xlink" x="0px" y="0px"
	 viewBox="0 0 400 240" style="enable-background:new 0 0 400 240;" xml:space="preserve">
<style type="text/css">
	.st0{fill-rule:evenodd;clip-rule:evenodd;fill:#999999;}
</style>
<g>
	<path class="st0" d="M190,111c0,6.5-0.6,26.7-0.6,26.7c0,3.9,1.3,5.6,5,5.6v1.7h-14.5v-1.7c3.7,0,5.6-1.7,5.6-5.6l1.3-33
		c-1.1-2.6-2.2-3.5-5-3.7v-1.5h11.1l11.7,30.8l11.9-30.8h10v1.5c-2.8,0-4.3,1.3-4.3,4.3l1.3,31.9c0,4.8,0.9,6.1,4.8,6.1v1.7h-16.7
		v-1.7c3.3,0,4.8-1.1,4.6-6.1c0,0-0.7-22.4-0.9-26.3l-8,22.2c-1.1,2.8-2.2,6.1-3,9.6l-2.6,0.2c-0.6-2.4-2.4-6.7-2.4-6.7
		S192.4,117.3,190,111L190,111z"/>
	<path class="st0" d="M176.3,145.4c-0.9-0.2-1.7-0.2-2.6-0.2c-1.7,0-4.8,0.9-8.5,0.9c-14.1,0-24.5-8.5-24.5-24.1
		c0-13.2,9.8-23.5,24.8-23.5c3.5,0,7.4,0.7,10.6,2c0.7-0.7,0.9-1.1,1.5-1.7h1.3c-0.2,2.4-1.1,10.2-1.1,10.2h-1.3
		c-0.9-4.6-3.3-7.6-10.9-7.6c-9.1,0-17.4,7.2-17.4,20.4c0,15,8.5,21.5,17.8,21.5c6.1,0,9.8-3.5,12.2-7.8l1.5,0.7L176.3,145.4
		L176.3,145.4z"/>
	<path class="st0" d="M135.2,108h-1.5c-0.2-4.1-1.5-5.4-4.8-5.4h-6.3v34.1c0,5.6,1.1,6.7,4.8,6.7v1.7h-16.3v-1.7
		c3.7,0,4.8-1.1,4.8-6.9v-33.9h-6.3c-4.1,0-4.8,1.1-5.9,5.4h-1.5l1.1-9.8l1.1,0.2c0.4,1.1,1.3,1.1,3.9,1.1h21.1c3.9,0,4.8,0,5.6-1.3
		h1.3L135.2,108L135.2,108z"/>
	<path class="st0" d="M89.2,146.2c-3,0-5.4-0.4-7.2-1.1c-1.7-0.4-3-1.1-3.7-1.5c-0.9,0.9-1.5,2-1.5,2l-1.3-0.4l1.1-10.2l1.5,0.2
		c0.9,4.8,4.1,8.3,10.9,8.3c5.2,0,8.7-4.3,8.7-9.1c0-3.9-1.5-5.9-6.7-9.8c-1.7-1.1-3.3-2-4.6-3c-4.8-3-7.8-6.5-7.8-12.2
		c0-6.5,5.4-10.9,12.6-10.9c4.1,0,6.7,1.3,7.6,1.7l1.5-1.7l1.1,0.2l-1.1,9.3l-1.5-0.2c0-4.3-2.6-6.3-6.9-6.3c-4.1,0-7.2,2.2-7.2,6.3
		c0,3.7,2.8,6.1,6.1,8.3c1.7,1.1,3,2,4.3,2.8c7.6,5.4,9.3,8.9,9.3,14.1C104.4,140.6,98.5,146.2,89.2,146.2L89.2,146.2z"/>
	<path class="st0" d="M64.4,108h-1.7c0-3.9-1.7-5.4-5.2-5.4h-9.8v17.2H54c3.3,0,3.9-1.7,4.3-4.6h1.5v12.2h-1.5
		c-0.4-3.3-1.1-4.6-4.6-4.6h-6.1v14.6c0,5.4,1.3,6.1,4.8,6.1v1.7H36v-1.7c4.1,0,4.8-1.1,4.8-6.1v-31.9c0-3-1.3-4.3-4.8-4.3v-1.5
		h22.6c3.9,0,4.8-0.2,5.4-1.5h1.5L64.4,108L64.4,108z"/>
	<path class="st0" d="M298.8,110.6v26.1c0,5.6,1.3,6.7,4.8,6.7v1.7h-25.6v-1.7c2,0,3.7-0.7,3.7-2c0-0.9-0.2-2.4-0.7-3.9l-2-6.3
		h-14.3c-0.2,0.9-2.8,8-2.8,10c0,1.7,2,2.2,3.3,2.2v1.7h-11.9v-1.7c2.2,0,3.9-0.2,5.4-4.8l11.1-35.4c-0.7-1.5-1.5-2-3-2.2v-1.5h9.8
		l11.7,37.1c1.1,3.9,2.2,5.9,3.9,6.7c2.6-0.9,3.3-1.7,3.3-6.7v-31.3c-2-2.6-2.2-4.3-5.9-4.3v-1.5h11.1l18.2,31.1v-23.7
		c0-4.8-1.1-5.9-4.8-5.9v-1.5h24.3v1.5c-1.5,0-2.8,0.7-2.8,2.2c0,1.1,0.4,2.2,0.9,3.5l6.9,15l6.7-14.5c1.1-2,1.3-3,1.3-4.1
		c0-1.3-0.9-2-2.8-2v-1.5H360v1.5c-2.8,0-4.6,2.6-5.9,5.6l-8.9,18.2v11.9c0,5.2,1.3,6.5,4.8,6.5v1.7h-16.5v-1.7
		c3.5,0,4.8-1.3,4.8-6.5v-10.2l-9.6-20.2c-1.7-3.9-2.4-4.8-3.5-5.4c-2.2,0.9-2.8,2.4-2.8,5.9v33.4c0,0,0.2,2.6,0.4,5.6l-2.8,0.2
		L298.8,110.6L298.8,110.6z M271.6,108.4l-6.1,19.8h12.6L271.6,108.4L271.6,108.4z"/>
	<path class="st0" d="M244.7,128.2c0,0-2,0-3.3,0v9.3c0,4.8,1.3,5.9,5,5.9v1.7h-16.7v-1.7c3.5,0,4.8-1.3,4.8-6.1v-30.6
		c0-4.8-1.3-5.6-4.8-5.6v-1.5h12.6c12.2,0,19.3,3.7,19.3,13.7C261.6,123.6,252.9,128.2,244.7,128.2L244.7,128.2z M242.5,102.6h-1.1
		v22.4h2c7.2,0,10.9-3.3,10.9-11.5C254.2,105.2,251,102.6,242.5,102.6L242.5,102.6z"/>
	<path class="st0" d="M168.9,136.4c-8.3,0-13.9-5.9-13.9-14.3c0-8,5.9-14.3,13.9-14.3c7.8,0,13.7,6.1,13.7,14.3
		C182.6,130.1,176.5,136.4,168.9,136.4L168.9,136.4z M168.9,110.4c-5.6,0-7.6,5.4-7.6,11.7c0,5.9,1.7,11.7,7.6,11.7
		c5.6,0,7.4-5.9,7.4-11.9C176.3,116,174.1,110.4,168.9,110.4L168.9,110.4z"/>
	<path class="st0" d="M73.4,133.8v-1.5c2.2,0,2.6-0.7,2.6-1.3c0-0.9-0.2-1.5-0.4-2.2c0,0-0.4-1.7-0.9-3h-8.5l-0.9,2.8
		c-0.2,0.7-0.4,1.3-0.4,2.2c0,0.9,0.9,1.5,2.2,1.5v1.5h-8.5v-1.5c2.2,0,3-0.7,3.9-3l6.5-19.5c-0.2-0.9-0.9-1.5-2.2-1.5v-1.5h6.9
		c5.6,16.5,7.2,20.8,7.2,20.8c1.1,3.7,2.2,4.8,3.9,4.8v1.5H73.4L73.4,133.8z M70.3,112.8l-3.3,10.6h6.7L70.3,112.8L70.3,112.8z"/>
</g>
</svg>
