<?xml version="1.0" encoding="utf-8"?>
<!-- Generator: Adobe Illustrator 25.4.1, SVG Export Plug-In . SVG Version: 6.00 Build 0)  -->
<svg version="1.1" id="Layer_1" xmlns="http://www.w3.org/2000/svg" xmlns:xlink="http://www.w3.org/1999/xlink" x="0px" y="0px"
	 viewBox="0 0 400 240" style="enable-background:new 0 0 400 240;" xml:space="preserve">
<style type="text/css">
	.st0{fill-rule:evenodd;clip-rule:evenodd;fill:#999999;}
	.st1{fill-rule:evenodd;clip-rule:evenodd;fill:#FFFFFF;}
</style>
<g>
	<path class="st0" d="M89.2,103.2c0.3,0.1,0.6,0.2,0.5,0.7c-0.1,0.8-1.4,0.5-2.1,0.7c-1.7,0.6-1.2,2.9-1.4,4.5v6.7c0,3,0,6.6,0,9.6
		v6.6c0,0.9-0.1,2,0.6,2.3c0.5,0.7,1.9,0.2,2.8,0.3c1.4-0.2,2-1.7,2.9-2.4c0.4-1.3,0.9-2.3,1.2-3.6c0.7-2.3,0.3-5.3,1.2-7.6
		c0.5-0.1,0.6,0.2,0.7,0.6v12.9c0.2,0.3-0.1,0.9-0.1,1.3l-1,0.2H82.6c-0.1,0-0.9,0-1.2,0c-0.5-0.1-1.2,0-1.4-0.5
		c0.1-1.3,2.2-0.7,2.2-2.2V117c-0.1-2.1,0-4.8,0-6.7c0-2,0.6-4.6-0.8-5.7c-0.6-0.6-2.4,0.3-2.2-0.9c0.1-0.2,0.2-0.3,0.6-0.5H89.2
		L89.2,103.2z"/>
	<path class="st0" d="M135.8,104.9c0.5,0.3,1,0,1.3-0.1c0.5-0.5,0-1.6,0.9-1.5l0.6,0.1v12.2c-0.2,0.1,0,0.8-0.3,0.8h-0.7
		c-0.2-4.4-0.6-8.9-3.8-11c-0.6-0.3-1.3-0.6-2-0.6c-1.4,0.1-2.2,1.2-2.8,2.2c-0.8,1.3-0.6,3.7,0.1,4.9c1.7,2.4,4.5,3.8,6.6,5.8
		c2.1,2.2,4.5,4.5,4.6,8.2c0.3,4.1-1,7.4-3.7,9.6c-1.5,1-3.8,1.2-5.6,0.5l-2.4-1.6c-0.6-0.2-0.7,0.3-0.9,0.6c0,0.7-0.1,1.2-0.6,1.4
		l-0.8-0.2l-0.1-6.7v-7.5c0.2-0.1,0.8-0.1,1,0c0.2,4.8,0.3,9.7,3.8,12.2c1,0.7,2.3,1.3,3.8,0.8c2.2-0.9,3-3.4,3-6
		c-0.2-2.3-1.2-4.1-2.8-5.3c-2.2-2.7-5.4-4.1-7.5-7c-0.6-0.7-0.6-1.6-1-2.4c-1.2-3.8,0.3-7.6,2.5-10c1-0.7,2.7-1.2,4.1-0.8
		C134.2,103.7,135.1,104.2,135.8,104.9L135.8,104.9z"/>
	<path class="st0" d="M44.1,103.3c0.2,0.1,0.6,0.1,0.7,0.6c-0.4,0.8-1.4,0.8-1.7,1.5c-0.4,0.7-0.4,2-0.1,2.8l1.4,8.2
		c0.6,2.7,1.2,5.4,1.9,8.1c0,0,0.2,0,0.3,0c0.9-3.9,1.6-7.9,2.3-11.8c-0.7-3-0.1-7.1-2.9-8.5c-0.2-0.6,0.1-0.9,0.7-0.9
		c1.6,0.1,6.8,0,8.1,0.1c0.1,0.2,0.1,0.7,0,0.9c-0.9,0.3-2,0.2-2.5,1c-1.3,2.1,0.5,4.3,0.4,6.7l1.4,7.3c0.4,1.6,0.4,3.6,1.3,4.9h0.1
		l1.7-7.5c0.9-3.1,1.4-6.5,2.1-9.7c0.2-1-0.1-1.7-0.8-2.2c-0.5-0.5-1.3-0.3-2-0.5c-0.1-0.2-0.1-0.7,0-0.9c1.7,0,7.1-0.1,7.8,0
		c0.3,0.1,0.2,0.7,0.1,0.9c-1,0.2-2.1,0.5-2.7,1.2c-0.7,1.9-1,3.8-1.5,5.7l-2,9c-1.2,5-2.4,10.1-3.6,15.2c-0.2,0.3-0.8,0.3-1,0.1
		c-0.7-0.9-0.7-2.4-1-3.7l-1.7-10l-0.9-4.2h-0.2l-1.4,6.8c-0.7,3.4-1.4,6.7-2.1,10.2c-0.1,0.7-0.6,1.2-1.5,0.9
		c-0.8-0.2-0.5-1.3-0.7-2l-0.6-3.7l-1.7-9.2l-1.2-6.6c-0.3-2.7-1-5.3-1.6-7.9c-0.1-0.7-0.8-1.2-1.3-1.6c-0.8-0.2-1.5,0.1-2.3-0.3
		c-0.2-0.2-0.3-0.9,0.1-1H44.1L44.1,103.3z"/>
	<path class="st0" d="M70.5,104.1c0.5,3.1,1.4,5.9,1.9,9.2l2.4,11.9c0.6,2.7,0.8,5.3,1.5,7.8c0.3,1,1,1.7,2.2,1.9
		c0,0.3,0.3,0.6,0.1,0.8l-0.4,0.3h-6.8c-0.2-0.3-1.4,0-1.9-0.3c-0.4-1.7,2.2-0.3,2.4-1.6c0.6-0.6,0.3-1.7,0.2-2.4
		c-0.6-1.2-0.1-3.1-1.3-3.9h-4.6l-0.5,0.2c-0.1,2.1-1.6,4.4-0.3,6.5c0.5,0.3,1.4,0.2,1.7,0.6l-0.1,0.7l-6.6,0.1
		c-0.7,0.2-0.6-0.8-0.3-1c1.4,0.1,2.2-0.6,2.9-1.3c0.8-1.9,0.8-4.2,1.4-6.3l1.3-8.1l1.2-6.7c0.6-2.8,0.9-5.7,1.5-8.6
		C68.6,103.2,70.8,102.8,70.5,104.1L70.5,104.1z"/>
	<path class="st0" d="M107.2,103.3c0.1,0.2,0.3,0.7,0.1,0.9c-1,0.5-2.8,0-3,1.3c-0.2,3.6-0.2,6.3-0.2,9.8l-0.1,14.1h-0.1
		c0.7,1.7-0.9,5.2,1.6,5.3c0.6,0.1,1.7,0.1,2.3-0.2c2.3-1.9,3-5,3.5-8.1c0.3-1.6,0.1-3.6,0.6-5.2c0.2-0.1,0.7-0.1,0.9,0v14.1
		l-0.1,0.6c-1.9,0-3.8,0-5.2,0.1l-6.6-0.1h-3.6c-0.6,0-0.3-0.8-0.2-1.2c1.2-0.1,2.5,0,3.1-0.9c0.5-1.7,0.1-4.1,0.4-5.9
		c-0.2-1.6,0.1-3.4-0.1-5.2l0.1-1.5v-14.8c-0.1-0.6-0.5-1.3-0.8-1.6c-0.7-0.8-3.5,0.3-2.4-1.5H107.2L107.2,103.3z"/>
	<path class="st0" d="M156.2,103.4l0.2,0.6v13.3c-0.1,0.3-0.3,0.5-0.6,0.6l-0.6-0.2c0.1-4.2-0.5-7.9-1.6-11.2
		c-0.2-0.7-0.8-1.3-1.5-1.6c-0.6,0-1.2,0-1.4,0.5v13V130h-0.1c0.1,1.7-0.2,3.9,1,4.8c0.8,0.6,2.2-0.3,2.3,0.9c0,0.9-1.3,0.2-1.8,0.6
		c-0.6,0-2,0-2.6,0v-0.1c-0.8,0.3-1.6-0.2-2.3,0.1c-0.7-0.1-2.2-0.1-3.2-0.1c-0.4-0.1-0.2-0.8-0.1-1c1.3-0.2,2.7-0.3,3.1-1.7v-27.8
		c-0.2-0.6-0.6-0.7-1-0.8c-1.7,0.5-2.2,2.3-2.7,4.1c-0.6,2.5-1,5.1-0.8,8.2c-0.2,0.3,0,0.9-0.6,0.9l-0.7-0.2v-14
		C142.7,103.2,152.6,103.3,156.2,103.4L156.2,103.4z"/>
	<path class="st0" d="M170,103.4c2,0.6,3.6,1.9,4.5,3.6c0.8,2.6,1.3,6.7-0.3,8.9c-0.8,1.2-1.7,2.2-3,3c-0.2,0.8,0.6,0.8,1,1.5
		c1.6,1.2,1.9,3.8,1.9,5.9c0-0.2-0.2-0.5-0.4-0.2c-0.1,0.3,0.1,0.6,0.5,0.6c0.1,2-0.2,4.2,0.2,5.9c0.1,0.3,0.3,0.6,0.7,0.7
		c0.6-0.1,0.7-0.7,0.9-1c-0.1-1,0.1-2.2,0.2-3.2c0.4,0.2,0.7-0.5,0.9,0c0.2,2.7,0.1,5.5-1.6,6.7c-0.7,0.5-1.4,0.7-2.4,0.6
		c-1.2-0.3-2-1-2.6-2l-0.3-2.2v-8.3c-0.4-1.6-0.7-3.4-2.3-3.8c-0.7-0.2-1.9-0.5-2.4,0l-0.2,0.5v12.9c0.2,0.7,0.5,1.3,1,1.5
		c0.6,0.1,1.4,0,1.3,0.9l-0.2,0.3l-6,0.1c-0.2,0-0.6-0.2-0.7,0c-0.6-0.5-2.5,0.6-2.1-0.8c0-0.8,1-0.2,1.5-0.6c0.6-0.1,0.9-0.7,1.3-1
		c0-0.6,0.4-1.3,0.1-1.9l0.1-6.7c0-2.8-0.1-5.4,0-7.9c0-1.7,0-4.2-0.1-6c0.1-1.2,0-2.9,0.1-4.1c-0.2-1-0.5-2.1-1.4-2.4
		c-0.6-0.2-1.6,0.1-1.9-0.5c-0.1-0.5,0-0.8,0.5-0.9H170L170,103.4z"/>
	<path class="st0" d="M194.4,103.4c0.8,0.3,0.4,2,0.5,2.8c0.3,1.9-0.2,3.9,0.1,5.6c-0.3,0.7,0.1,1.2,0,1.9c-0.2,0.8,0,2-0.2,2.7
		c-1.6,0.1-0.8-2-1-3c-0.3-3.6-1.6-6.8-4.6-8.3c-1-0.3-2.8-0.3-3.5,0.5c-0.7,2.1-0.3,5.6-0.3,7.5c-0.2,0.7,0.1,0.9,0,1.7
		c0,1,0,2.2,0,3.2c0.1,0.3-0.1,1.3,0.7,1.2c2.8-1.3,3.1-4.5,3.1-7.8c0-0.5,0.2-0.7,0.9-0.6l0.1,0.7c-0.2,1.5,0.2,3.4-0.1,5
		c0,1.6,0,3.8,0.1,5.6c-0.1,2.1-0.1,3.9,0,6c0,0.5-0.2,0.7-0.7,0.7c-0.8-0.7-0.2-2.7-0.6-3.7c-0.5-2-0.9-4.3-3.1-4.7l-0.3,0.2
		c-0.2,2.5-0.1,4.4-0.1,6.7c0,2.1,0.1,4.8,0,6.8c0.7,1.4,2.4,0.8,4.1,0.8c2.9-1.3,3.9-4.8,4.5-8l1.4,0.3v8.6l-0.3,0.3l-13.4,0.1
		c-0.9-0.2-2.6,0.1-3.5-0.2c-0.4-1.9,1.9-0.6,2.5-1.3c0.5-0.2,0.7-0.7,0.9-1.2v-27.3c-0.2-0.6-0.6-1.2-1-1.4c-0.8-0.3-2.5,0.3-2.4-1
		l0.2-0.3H194.4L194.4,103.4z"/>
	<path class="st0" d="M211.2,103.4c0.6,0.3,2.2-0.2,2.5,0.5c0,4.3,0.1,8,0,12.2c-0.1,0.3-0.7,0.3-0.9,0.1c-0.5-4.5-0.3-9.8-4.5-11.5
		c-0.9-0.3-2,0.1-2.9,0.1c-0.6,0.6-1,1-1,2V118c0.1,0.3,0.2,0.6,0.6,0.6c3.1-0.8,2.9-4.6,3.4-7.8c0.1-0.2,0.7-0.2,0.9,0
		c0,1.5,0,3.6,0,4.8c0.2,0.2,0,0.2,0,0.7c0.2,1,0,1.9,0.1,3.1c0,0.8,0,2.1,0,3.1c-0.3,1.7,0.1,3.9-0.3,5.6c-0.2,0.2-0.7,0.1-0.8-0.2
		c-0.2-2.7-0.2-6.1-2.3-7.8c-0.2-0.2-0.9-0.2-1.3,0l-0.2,0.8v7.5h0.1c0.1,1.9-0.7,4.9,0.7,6c0.9,0.5,2.2,0.6,3.4,0.3
		c2.5-0.8,3.2-3.5,4.2-5.8c-0.2-0.9,0.3-1.9,0.3-2.9l0.2-3.7c0.2-0.2,0.5-0.3,0.8-0.1l0.2,0.2c-0.4,1.7,0.7,4.5-0.9,5.2
		c-0.1,0.5-0.7,0.5-0.7,1c0.5-0.5,1-0.9,1.5-1.6h0.2l-0.1,6.7c-0.2,0.8,0.3,2.1-0.6,2.3c-2,0.2-3.8,0.1-5.8,0.1
		c-3.7-0.2-7.2-0.1-10.8-0.1c-0.3-0.1-0.3-0.8-0.1-1c1-0.3,2.4-0.1,3.1-1.2c1-0.8,0.5-3.1,0.6-4.6c0.1-2.5-0.2-5.9,0-8.2l-0.1-6.6
		v-8.2c-0.3-0.9-1-1.7-2.2-1.7c-0.7,0-1.5,0.1-1.3-0.8C197.3,103.3,209.4,103.4,211.2,103.4L211.2,103.4z"/>
	<path class="st0" d="M270.2,106.8c1.5,2.1,2,5.1,2.7,8c0.8,6,0.2,13-2.1,17.4c-0.9,1.7-2.2,3-3.7,3.9c-1.4,0.3-3.5,0.5-4.4-0.5
		c-4.4-4.1-5.4-10.4-5.3-17.8c0.2-5,1.7-9.7,4.6-13.1c1.2-1.3,3.4-1.6,5.2-1C268.4,104.5,269.5,105.5,270.2,106.8L270.2,106.8z"/>
	<path class="st0" d="M231.5,103.8l0.2,0.3l0.1,8.9c-0.3,1.5,0,3.4-0.2,4.9c-0.3,0.3-0.7,0-0.9-0.1l-0.3-5.7c-0.5-2.7-0.9-5.1-2.4-7
		c-0.3-0.3-1.2-0.3-1.4,0l-0.5,0.5v8.2v0.1v6.6v13.2c0.2,1.6,2.5,0.7,3.5,1.4c0.1,0.6-0.1,0.9-0.6,1c-3,0.3-6-0.2-9,0
		c-0.7,0.1-0.7-0.7-0.5-1c1-0.2,2.3-0.1,2.7-1.2l0.1-13v-15.3c-0.2-0.3-0.5-0.7-0.9-0.8c-2.1,0.2-2.2,2.3-2.8,3.8l-0.9,6.3
		c-0.2,1,0.2,2.4-0.3,3l-0.7-0.1l-0.1-6.5c0-2.3-0.1-5.2,0.1-7.5C217.4,103.3,229.5,103.7,231.5,103.8L231.5,103.8z"/>
	<path class="st0" d="M256.5,103.7c0.6-0.1,0.7,0.5,0.5,0.8c-1.2,0.2-2.3,0.2-3,1c-0.8,1.9,0.1,4.3-0.2,6.3c0.1,0.3-0.1,1,0,1.6
		c0.1,1.5,0,3.2,0,4.6c0,0.5,0,1.3,0,2v11c-0.7,2.3-1.7,4.6-4.1,5.2c-2.3,0.6-3.8-0.5-4.9-1.6c-1.3-1.9-2.7-4.3-1.6-7.1
		c0.5-1,1.3-1.6,2.4-1.7c0.6,0.2,1.3,0.5,1.5,1c-0.1,1,0.6,2.2-0.1,2.9c-0.1,0.9-1.4,0.9-1.4,2c0.1,1.4,0.7,2.5,1.9,3
		c1,0.2,1.6-0.2,2.2-0.8c0.8-2.3,0.3-6,0.3-8.6l0.1-6.7v-11.9c-0.2-0.7-0.5-1.3-1-1.9c-0.7-0.6-2.3,0.2-2.7-0.7l0.3-0.7
		C250.4,103.4,252.9,103.8,256.5,103.7L256.5,103.7z"/>
	<path class="st0" d="M281.9,103.8c0.5-0.2,1.4-0.3,1.7,0.2c0.1,0.7-0.3,0.8-0.8,0.9c-0.7,0-1.2,0.3-1.6,0.7c-0.5,0.8-0.5,2-0.5,3.1
		V122l-0.1,0.1c0.2,3.5,0,5.8,0.2,9.4c0.4,1.4,1.2,2.7,2.4,3.4c1,0.2,2.4,0.1,3.1-0.7c1.2-0.8,1.4-2.1,1.6-3.4v-11.6l-0.1-0.7
		l0.1-10.2c0.1-1-0.1-2.2-0.7-3c-0.6-0.5-1.6-0.5-2.3-0.6l0.1-0.8l6.1-0.1c0.4,0,0.6,0.3,0.6,0.6c0,0.6-0.9,0.2-1.2,0.5
		c-0.6,0.1-1.2,0.6-1.2,1.2l-0.4,1.9V131c-0.2,2-1.4,3.6-2.8,4.7c-0.9,0.8-2.8,0.5-3.8,0.7c-2.3-0.5-4.3-2.1-5-4.3
		c-1.4-2.9-0.5-7.6-0.8-10.8v-14.9c-0.2-0.7-0.6-1.2-1.2-1.5c-0.6-0.2-1.6,0-1.6-0.7c-0.1-0.7,0.7-0.3,1-0.6L281.9,103.8
		L281.9,103.8z"/>
	<path class="st0" d="M300.6,103.9c3.5-0.5,6.9,0.2,8.3,3c1.2,1.9,1.9,4.8,1,7.3c-1,1.9-1.9,4.2-3.9,5.1c0,1,1.2,1.3,1.6,2.1
		c0.5,0.9,0.9,1.7,0.9,3l0.2,5.9c0,1-0.1,2.8,0.9,3.2c1.4-0.5,1-2.5,1.3-4.1c0.1-0.1,0.6-0.1,0.7,0c0.4,2.5-0.2,5-1.7,6.5
		c-0.8,0.3-1.9,0.8-2.8,0.5c-1,0-1-1.2-1.7-1.7l-0.4-3.4v-6.7c-0.1-1.5-0.2-3.2-1.4-4.1c-0.8-0.7-2.3-0.9-3.5-0.5l-0.2,0.3
		c-0.5,4.5,0.1,8.2,0,13c0.1,0.7,0.2,1.5,1,1.9c0.7,0.1,1,0,1.8,0.2c0.1,0.2,0,0.6,0.1,0.9l-6.1,0.1l-3.4-0.2
		c-0.2-0.2-0.2-0.8,0-0.9c1,0,1.9-0.3,2.4-0.9l0.4-1.2v-26.7c-0.2-0.7-0.4-1.4-1-1.7c-0.6-0.2-1.6,0.1-1.6-0.7
		c0.3-0.8,1-0.1,1.9-0.5C297.2,103.9,298.6,103.9,300.6,103.9L300.6,103.9z"/>
	<path class="st0" d="M317.6,103.8c0.2,0.2,0.7,0.3,0.8,0.7c2.3,6.5,4.1,13.2,6.7,19.5c0.7-0.1-0.2-0.8,0.2-1.2
		c-0.1-2.4,0.1-4.8-0.1-7.3c0.2-1.4,0-2.4,0.1-3.9c-0.3-0.2,0.2-0.6-0.1-0.7c0.2-1.4-0.1-3.4-0.1-5c-0.6-0.8-1.6-1-2.8-1
		c0-0.1-0.2-0.8,0.2-0.9c2.2,0,4.3,0,6.7,0c0.5,0.1,0.2,0.6,0.2,0.9c-0.7,0.3-1.7,0.2-2.2,0.9l-0.5,1.2l-0.1,6.3v17.4
		c0,0.6,0,1.9,0,2.4c-0.1,0.9,0.1,2.4-0.1,3.4c-0.2,0.2-0.8,0.3-1,0.1c-0.8-1-0.7-2.8-1.5-3.8c-1.3-3.1-2-6.7-3.2-9.7l-2.3-6.6
		c-0.3-1.2-0.9-2.1-1.3-3.1l-0.2,0.1c-0.3,1.4-0.3,2.5-0.1,3.9l-0.1,6.3v10.3c0.2,0.6,0.5,1.2,1,1.5c0.6,0.3,2-0.3,2,0.7l-0.1,0.5
		l-6.5,0.1c-0.5-0.1-1-0.1-1-0.7c0.5-0.9,2.4,0,2.9-1.2c0.5-0.9,0.5-2.2,0.5-3.5l-0.1-13.3v-11.1c-0.2-1.6-1.9-1.7-3.1-2.1
		c-0.4-0.2,0-0.6,0-0.8C314,103.7,315.8,103.8,317.6,103.8L317.6,103.8z"/>
	<path class="st0" d="M340.2,109.7c0.5,3.2,1.5,6.1,1.9,9.5l2.1,9.6c0.7,2.3,0.6,5.3,2.8,6.5c0.6,0.1,1.3,0.1,0.9,1l-0.1,0.2
		c-2.7,0.1-6.3,0.2-9-0.1c-0.6-1.6,1.4-0.9,2.1-1.4c0.6-0.5,0.7-1.4,0.6-2.4c-0.4-1.6-0.6-3.4-1.3-4.6c-1.9-0.1-4.1-0.1-5.7,0.1
		c-0.5,0.6-0.6,1.5-0.7,2.4c-0.2,1.4-1.2,3.5,0.2,4.6c0.6,0.6,2.9-0.5,2.1,1.3c-1.9,0.3-4.1,0.2-5.9,0.2c-0.6-0.2-1.9,0.2-1.5-0.9
		c0-0.7,1.2-0.2,1.5-0.5c1-0.6,1.5-1.6,1.7-2.7l1.4-7.9l1.7-10l1-5.8c0.3-1.7,0.6-3.7,1.4-5.1l1.5,0.1L340.2,109.7L340.2,109.7z"/>
	<path class="st0" d="M357.8,103.9c0.5,0.1,0.9,0.2,0.9,0.8c-0.2,0.8-1.7,0.3-2.3,0.8c-0.8,0.3-0.8,1.4-1,2.1v25.8
		c-0.3,0.8,0.2,1.4,0.7,1.9c0.9,0.6,3,0.5,4.2,0.1c1.9-1.2,2.2-3.5,3-5.6l0.8-6c0.1-0.2,0.6-0.2,0.9,0v10.8h-0.1
		c0,0.6,0.1,1.5-0.1,2.1c-0.6,0.2-1.5,0-2,0.1l-0.3-0.1l-6.3,0.1c-2.4-0.1-5.1,0.2-7.1-0.3c-0.2-0.1-0.2-0.6-0.1-0.8
		c0.7-0.5,2.2,0.1,2.6-0.9l0.1-1.2v-27.3c-0.6-1.2-1.8-1.3-3-1.3c0-0.5-0.2-0.9,0.2-1H357.8L357.8,103.9z"/>
	<path class="st1" d="M268.1,106.9l0.2,2.2v7.3l0.1,0.1l-0.1,15.1c-0.2,1.2-0.8,2-1.4,2.9c-0.8,0.7-2.2,0.6-3,0.1
		c-1.7-1.2-2.1-3.4-2-5.3c-0.1-1.6,0.5-3,0-4.5c0.1-1.7,0-3.7,0.2-5.6c-0.2-0.1,0-0.8-0.2-0.9c0.5-0.6-0.1-0.9,0-1.5
		c0.1-2.9,0-5.1,0-8.5c0.5-1.5,1.2-3.2,2.8-3.6C266.5,104.6,267.4,105.6,268.1,106.9L268.1,106.9z"/>
	<path class="st1" d="M169,104.9c3.2,2,2,7,1.9,10.7c-0.2,1-0.8,1.9-1.6,2.5c-0.9,0.6-2.9,0.5-3.8,0.1l-0.1-11.8
		c0.1-0.8,0.5-1.6,1.5-1.6C167.5,104.6,168.2,104.9,169,104.9L169,104.9z"/>
	<path class="st1" d="M305.7,106.8c0.4,0.8,0.4,2,0.5,2.8l-0.1,6.1c-0.4,1.2-0.7,2.2-1.7,2.7c-0.9,0.3-3,0.3-4.2,0
		c-0.1-4.4-0.1-7.8-0.1-12.2c0.1-0.6,0.6-1.2,1.3-1.4C303.5,104.4,304.6,105.5,305.7,106.8L305.7,106.8z"/>
	<path class="st1" d="M337.3,113.6c0.7,4.4,2.1,8.3,2.7,12.9l-0.2,0.2l-4.6,0.1l-0.6-0.3c0.1-1.3,0.4-2.7,0.7-4.1l0.9-6.1
		c0.2-0.9,0.3-2,0.7-2.8L337.3,113.6L337.3,113.6z"/>
	<path class="st1" d="M69.8,119.8L71,126c-0.8,0.9-2.4,0-3.7,0.3l-0.9-0.1l0.1-1.5l1-6.6l0.8-4.3l0.2,0.1L69.8,119.8L69.8,119.8z"/>
</g>
</svg>
