<?xml version="1.0" encoding="utf-8"?>
<!-- Generator: Adobe Illustrator 26.0.1, SVG Export Plug-In . SVG Version: 6.00 Build 0)  -->
<svg version="1.1" id="Layer_1" xmlns="http://www.w3.org/2000/svg" xmlns:xlink="http://www.w3.org/1999/xlink" x="0px" y="0px"
	 viewBox="0 0 147 33" style="enable-background:new 0 0 147 33;" xml:space="preserve">
<style type="text/css">
	.st0{fill:#FFFFFF;}
</style>
<path class="st0" d="M0.8,29.4v-6h8.1v1c0,1,0.1,1.6,0.4,2C9.5,26.8,10,27,10.5,27s0.9-0.2,1.3-0.5c0.3-0.3,0.5-0.8,0.5-1.3
	c0-1.2-1.5-2.1-4.5-2.8c-3-0.6-4.9-1.4-5.9-2.4c-0.9-0.9-1.4-2.4-1.4-4.3c0-2.4,0.8-4.1,2.3-5.3s3.8-1.8,6.9-1.8
	c2,0,3.9,0.3,5.7,0.8s3.3,1.3,4.7,2.2V17h-8v-1c0-0.7-0.2-1.2-0.5-1.6c-0.3-0.4-0.7-0.6-1.2-0.6S9.5,14,9.1,14.3
	c-0.3,0.3-0.5,0.7-0.5,1.2c0,1,1.3,1.8,3.9,2.4l0,0c3.2,0.7,5.3,1.5,6.3,2.5s1.6,2.5,1.6,4.4c0,2.6-0.8,4.5-2.3,5.7s-4,1.8-7.2,1.8
	c-2,0-3.9-0.2-5.6-0.7C3.7,31.1,2.2,30.4,0.8,29.4z M33.3,23.8c0,0.9,0.1,1.6,0.2,2c0.2,0.5,0.4,0.8,0.8,1V32H23.7v-5.2
	c0.4-0.1,0.7-0.4,0.8-0.9c0.2-0.5,0.3-1.2,0.3-2v-7.3c0-0.8-0.1-1.3-0.2-1.6c-0.2-0.3-0.5-0.6-0.9-0.8V9.1H33v1.6
	c0.9-0.6,1.8-1.1,2.8-1.4c1-0.3,2-0.5,3.1-0.5c1.2,0,2.3,0.2,3.2,0.6c0.9,0.4,1.6,1,2.1,1.7c1-0.8,2-1.3,3.1-1.7s2.3-0.6,3.4-0.6
	c2.2,0,3.8,0.6,4.8,1.7s1.5,3,1.5,5.7v7.6c0,1,0.1,1.7,0.2,2.1c0.2,0.4,0.4,0.7,0.8,0.8V32h-9.1c-0.2-0.8-0.3-1.7-0.4-2.9
	c-0.1-1.1-0.1-3.2-0.1-6.1v-5c0-1.2-0.1-2-0.4-2.4c-0.3-0.4-0.8-0.6-1.5-0.6c-0.2,0-0.3,0-0.6,0.1c-0.2,0-0.5,0.1-0.8,0.2v8.6
	c0,1.1,0.1,1.8,0.2,2.2c0.2,0.4,0.4,0.6,0.8,0.8V32H37c-0.2-0.8-0.3-1.7-0.3-2.9c-0.1-1.1-0.1-3.2-0.1-6.1v-5c0-1.2-0.2-2-0.5-2.4
	S35.3,15,34.6,15c-0.2,0-0.4,0-0.6,0.1c-0.2,0-0.5,0.1-0.7,0.2C33.3,15.3,33.3,23.8,33.3,23.8z M69.9,16.7v0.8h3.4v-0.8
	c0-1-0.1-1.7-0.4-2.1c-0.3-0.4-0.7-0.6-1.3-0.6c-0.6,0-1,0.2-1.3,0.6C70,15,69.9,15.7,69.9,16.7z M69.9,24.4c0,1,0.1,1.7,0.4,2.1
	s0.7,0.6,1.3,0.6c0.6,0,1-0.2,1.3-0.6s0.4-1.1,0.4-2.1v-0.6h8.5v5.7c-1.1,1-2.6,1.7-4.4,2.2s-3.9,0.7-6.3,0.7c-3.5,0-6-0.6-7.5-1.9
	c-1.4-1.2-2.2-3.4-2.2-6.5v-7c0-3.1,0.7-5.3,2.2-6.5s4.1-1.8,8-1.8c3.8,0,6.4,0.7,7.9,2s2.3,3.7,2.3,7v4.6H69.9V24.4z M95.1,23.8
	c0,0.9,0.1,1.6,0.2,2.1c0.2,0.5,0.4,0.8,0.8,1V32H85.4v-5.2c0.4-0.1,0.7-0.4,0.8-0.9c0.2-0.5,0.3-1.2,0.3-2v-7.3
	c0-0.8-0.1-1.3-0.2-1.6c-0.2-0.3-0.5-0.6-0.9-0.8V9.1h9.7C95.1,9.1,95.1,23.8,95.1,23.8z M95,4.2c0,1-0.4,1.9-1.3,2.5s-2,1-3.3,1
	s-2.4-0.3-3.3-1s-1.3-1.5-1.3-2.5s0.4-1.8,1.3-2.5s2-1,3.3-1s2.4,0.3,3.3,1C94.6,2.3,95,3.2,95,4.2z M111.4,25.8V15.3
	c-0.3-0.1-0.5-0.2-0.8-0.3c-0.2-0.1-0.4-0.1-0.7-0.1c-0.7,0-1.2,0.2-1.4,0.6c-0.3,0.4-0.4,1.2-0.4,2.6v5c0,1.2,0.1,2,0.4,2.4
	s0.8,0.6,1.5,0.6c0.2,0,0.4,0,0.6-0.1C111,26,111.2,25.9,111.4,25.8z M111.5,9c0-1-0.1-1.7-0.2-2.2s-0.5-0.7-0.9-0.9V0.8h9.7v23.6
	c0,0.8,0.1,1.3,0.2,1.7c0.2,0.3,0.5,0.6,0.9,0.8V32h-9.3v-1.6c-0.8,0.6-1.8,1-2.8,1.3s-2,0.4-3.1,0.4c-2.3,0-3.9-0.6-4.8-1.7
	c-1-1.1-1.5-3.1-1.5-5.9v-7.2c0-3.3,0.5-5.5,1.5-6.7s2.6-1.8,4.9-1.8c0.9,0,1.8,0.1,2.7,0.3c0.9,0.2,1.9,0.5,2.8,1L111.5,9L111.5,9z
	 M145.6,9.1v15.3c0,0.8,0.1,1.4,0.2,1.7c0.2,0.3,0.5,0.6,0.8,0.7V32h-9.3v-1.6c-0.9,0.6-1.8,1-2.8,1.3c-1,0.3-2,0.4-3.1,0.4
	c-2.3,0-3.9-0.6-4.9-1.7s-1.5-3.1-1.5-5.8v-7.5c0-1.1-0.1-1.8-0.2-2.2s-0.4-0.6-0.8-0.8v-5h9.1c0.2,0.8,0.3,1.8,0.3,3
	c0.1,1.1,0.1,3.2,0.1,6v5c0,1.2,0.1,2,0.4,2.4c0.3,0.4,0.8,0.6,1.5,0.6c0.3,0,0.5,0,0.7-0.1c0.2,0,0.4-0.1,0.6-0.2v-8.6
	c0-0.9-0.1-1.6-0.2-2.1c-0.2-0.5-0.4-0.8-0.8-1v-5H145.6z"/>
</svg>
